<svg width="40" height="40" viewBox="0 0 40 40" fill="none" xmlns="http://www.w3.org/2000/svg">
<rect x="0.5" y="0.5" width="39" height="39" rx="19.5" stroke="#E7E7E7"/>
<path d="M17.3333 10.6667C17.3333 9.95942 17.6142 9.28115 18.1143 8.78105C18.6144 8.28095 19.2927 8 19.9999 8C20.7072 8 21.3854 8.28095 21.8855 8.78105C22.3856 9.28115 22.6666 9.95942 22.6666 10.6667C24.1978 11.3907 25.5031 12.5178 26.4427 13.9271C27.3822 15.3364 27.9205 16.9748 27.9999 18.6667V22.6667C28.1003 23.4956 28.3938 24.2894 28.857 24.9842C29.3202 25.6789 29.94 26.2552 30.6666 26.6667H9.33325C10.0598 26.2552 10.6797 25.6789 11.1428 24.9842C11.606 24.2894 11.8996 23.4956 11.9999 22.6667V18.6667C12.0793 16.9748 12.6177 15.3364 13.5572 13.9271C14.4967 12.5178 15.802 11.3907 17.3333 10.6667" stroke="white" stroke-width="1.5" stroke-linecap="round" stroke-linejoin="round"/>
<path d="M16 26.6667V28.0001C16 29.0609 16.4214 30.0784 17.1716 30.8285C17.9217 31.5787 18.9391 32.0001 20 32.0001C21.0609 32.0001 22.0783 31.5787 22.8284 30.8285C23.5786 30.0784 24 29.0609 24 28.0001V26.6667" stroke="white" stroke-width="1.5" stroke-linecap="round" stroke-linejoin="round"/>
<circle cx="26" cy="14" r="3.5" fill="#FF5652" stroke="white"/>
</svg>
