<svg width="520" height="210" viewBox="0 0 520 210" fill="none" xmlns="http://www.w3.org/2000/svg">
<path d="M31.0087 9.812C31.0087 8.996 31.1927 8.264 31.5607 7.616C31.9287 6.96 32.4287 6.448 33.0607 6.08C33.7007 5.712 34.4087 5.528 35.1847 5.528C36.0967 5.528 36.8927 5.748 37.5727 6.188C38.2527 6.628 38.7487 7.252 39.0607 8.06H37.7527C37.5207 7.556 37.1847 7.168 36.7447 6.896C36.3127 6.624 35.7927 6.488 35.1847 6.488C34.6007 6.488 34.0767 6.624 33.6127 6.896C33.1487 7.168 32.7847 7.556 32.5207 8.06C32.2567 8.556 32.1247 9.14 32.1247 9.812C32.1247 10.476 32.2567 11.06 32.5207 11.564C32.7847 12.06 33.1487 12.444 33.6127 12.716C34.0767 12.988 34.6007 13.124 35.1847 13.124C35.7927 13.124 36.3127 12.992 36.7447 12.728C37.1847 12.456 37.5207 12.068 37.7527 11.564H39.0607C38.7487 12.364 38.2527 12.984 37.5727 13.424C36.8927 13.856 36.0967 14.072 35.1847 14.072C34.4087 14.072 33.7007 13.892 33.0607 13.532C32.4287 13.164 31.9287 12.656 31.5607 12.008C31.1927 11.36 31.0087 10.628 31.0087 9.812ZM41.7782 8.492C41.9702 8.116 42.2422 7.824 42.5942 7.616C42.9542 7.408 43.3902 7.304 43.9022 7.304V8.432H43.6142C42.3902 8.432 41.7782 9.096 41.7782 10.424V14H40.6862V7.424H41.7782V8.492ZM45.7268 6.356C45.5188 6.356 45.3428 6.284 45.1988 6.14C45.0548 5.996 44.9828 5.82 44.9828 5.612C44.9828 5.404 45.0548 5.228 45.1988 5.084C45.3428 4.94 45.5188 4.868 45.7268 4.868C45.9268 4.868 46.0948 4.94 46.2308 5.084C46.3748 5.228 46.4468 5.404 46.4468 5.612C46.4468 5.82 46.3748 5.996 46.2308 6.14C46.0948 6.284 45.9268 6.356 45.7268 6.356ZM46.2548 7.424V14H45.1628V7.424H46.2548ZM49.4479 8.324V12.2C49.4479 12.52 49.5159 12.748 49.6519 12.884C49.7879 13.012 50.0239 13.076 50.3599 13.076H51.1639V14H50.1799C49.5719 14 49.1159 13.86 48.8119 13.58C48.5079 13.3 48.3559 12.84 48.3559 12.2V8.324H47.5039V7.424H48.3559V5.768H49.4479V7.424H51.1639V8.324H49.4479ZM53.051 6.356C52.843 6.356 52.667 6.284 52.523 6.14C52.379 5.996 52.307 5.82 52.307 5.612C52.307 5.404 52.379 5.228 52.523 5.084C52.667 4.94 52.843 4.868 53.051 4.868C53.251 4.868 53.419 4.94 53.555 5.084C53.699 5.228 53.771 5.404 53.771 5.612C53.771 5.82 53.699 5.996 53.555 6.14C53.419 6.284 53.251 6.356 53.051 6.356ZM53.579 7.424V14H52.487V7.424H53.579ZM55.0321 10.7C55.0321 10.02 55.1681 9.428 55.4401 8.924C55.7121 8.412 56.0881 8.016 56.5681 7.736C57.0561 7.456 57.6121 7.316 58.2361 7.316C59.0441 7.316 59.7081 7.512 60.2281 7.904C60.7561 8.296 61.1041 8.84 61.2721 9.536H60.0961C59.9841 9.136 59.7641 8.82 59.4361 8.588C59.1161 8.356 58.7161 8.24 58.2361 8.24C57.6121 8.24 57.1081 8.456 56.7241 8.888C56.3401 9.312 56.1481 9.916 56.1481 10.7C56.1481 11.492 56.3401 12.104 56.7241 12.536C57.1081 12.968 57.6121 13.184 58.2361 13.184C58.7161 13.184 59.1161 13.072 59.4361 12.848C59.7561 12.624 59.9761 12.304 60.0961 11.888H61.2721C61.0961 12.56 60.7441 13.1 60.2161 13.508C59.6881 13.908 59.0281 14.108 58.2361 14.108C57.6121 14.108 57.0561 13.968 56.5681 13.688C56.0881 13.408 55.7121 13.012 55.4401 12.5C55.1681 11.988 55.0321 11.388 55.0321 10.7ZM62.3212 10.688C62.3212 10.016 62.4572 9.428 62.7292 8.924C63.0012 8.412 63.3732 8.016 63.8452 7.736C64.3252 7.456 64.8572 7.316 65.4412 7.316C66.0172 7.316 66.5172 7.44 66.9412 7.688C67.3652 7.936 67.6812 8.248 67.8892 8.624V7.424H68.9932V14H67.8892V12.776C67.6732 13.16 67.3492 13.48 66.9172 13.736C66.4932 13.984 65.9972 14.108 65.4292 14.108C64.8452 14.108 64.3172 13.964 63.8452 13.676C63.3732 13.388 63.0012 12.984 62.7292 12.464C62.4572 11.944 62.3212 11.352 62.3212 10.688ZM67.8892 10.7C67.8892 10.204 67.7892 9.772 67.5892 9.404C67.3892 9.036 67.1172 8.756 66.7732 8.564C66.4372 8.364 66.0652 8.264 65.6572 8.264C65.2492 8.264 64.8772 8.36 64.5412 8.552C64.2052 8.744 63.9372 9.024 63.7372 9.392C63.5372 9.76 63.4372 10.192 63.4372 10.688C63.4372 11.192 63.5372 11.632 63.7372 12.008C63.9372 12.376 64.2052 12.66 64.5412 12.86C64.8772 13.052 65.2492 13.148 65.6572 13.148C66.0652 13.148 66.4372 13.052 66.7732 12.86C67.1172 12.66 67.3892 12.376 67.5892 12.008C67.7892 11.632 67.8892 11.196 67.8892 10.7ZM71.9306 5.12V14H70.8386V5.12H71.9306Z" fill="white"/>
<path d="M53.1888 46.886V55.25H52.0968V51.458H47.8368V55.25H46.7448V46.886H47.8368V50.558H52.0968V46.886H53.1888ZM55.6174 47.606C55.4094 47.606 55.2334 47.534 55.0894 47.39C54.9454 47.246 54.8734 47.07 54.8734 46.862C54.8734 46.654 54.9454 46.478 55.0894 46.334C55.2334 46.19 55.4094 46.118 55.6174 46.118C55.8174 46.118 55.9854 46.19 56.1214 46.334C56.2654 46.478 56.3374 46.654 56.3374 46.862C56.3374 47.07 56.2654 47.246 56.1214 47.39C55.9854 47.534 55.8174 47.606 55.6174 47.606ZM56.1454 48.674V55.25H55.0534V48.674H56.1454ZM60.7185 48.566C61.2865 48.566 61.7825 48.69 62.2065 48.938C62.6385 49.186 62.9585 49.498 63.1665 49.874V48.674H64.2705V55.394C64.2705 55.994 64.1425 56.526 63.8865 56.99C63.6305 57.462 63.2625 57.83 62.7825 58.094C62.3105 58.358 61.7585 58.49 61.1265 58.49C60.2625 58.49 59.5425 58.286 58.9665 57.878C58.3905 57.47 58.0505 56.914 57.9465 56.21H59.0265C59.1465 56.61 59.3945 56.93 59.7705 57.17C60.1465 57.418 60.5985 57.542 61.1265 57.542C61.7265 57.542 62.2145 57.354 62.5905 56.978C62.9745 56.602 63.1665 56.074 63.1665 55.394V54.014C62.9505 54.398 62.6305 54.718 62.2065 54.974C61.7825 55.23 61.2865 55.358 60.7185 55.358C60.1345 55.358 59.6025 55.214 59.1225 54.926C58.6505 54.638 58.2785 54.234 58.0065 53.714C57.7345 53.194 57.5985 52.602 57.5985 51.938C57.5985 51.266 57.7345 50.678 58.0065 50.174C58.2785 49.662 58.6505 49.266 59.1225 48.986C59.6025 48.706 60.1345 48.566 60.7185 48.566ZM63.1665 51.95C63.1665 51.454 63.0665 51.022 62.8665 50.654C62.6665 50.286 62.3945 50.006 62.0505 49.814C61.7145 49.614 61.3425 49.514 60.9345 49.514C60.5265 49.514 60.1545 49.61 59.8185 49.802C59.4825 49.994 59.2145 50.274 59.0145 50.642C58.8145 51.01 58.7145 51.442 58.7145 51.938C58.7145 52.442 58.8145 52.882 59.0145 53.258C59.2145 53.626 59.4825 53.91 59.8185 54.11C60.1545 54.302 60.5265 54.398 60.9345 54.398C61.3425 54.398 61.7145 54.302 62.0505 54.11C62.3945 53.91 62.6665 53.626 62.8665 53.258C63.0665 52.882 63.1665 52.446 63.1665 51.95ZM69.3799 48.554C69.8759 48.554 70.3239 48.662 70.7239 48.878C71.1239 49.086 71.4359 49.402 71.6599 49.826C71.8919 50.25 72.0079 50.766 72.0079 51.374V55.25H70.9279V51.53C70.9279 50.874 70.7639 50.374 70.4359 50.03C70.1079 49.678 69.6599 49.502 69.0919 49.502C68.5159 49.502 68.0559 49.682 67.7119 50.042C67.3759 50.402 67.2079 50.926 67.2079 51.614V55.25H66.1159V46.37H67.2079V49.61C67.4239 49.274 67.7199 49.014 68.0959 48.83C68.4799 48.646 68.9079 48.554 69.3799 48.554Z" fill="white"/>
<path d="M24.3147 88.196V96.5H23.2227V90.308L20.4627 96.5H19.6947L16.9227 90.296V96.5H15.8307V88.196H17.0067L20.0787 95.06L23.1507 88.196H24.3147ZM29.0347 96.608C28.4187 96.608 27.8587 96.468 27.3547 96.188C26.8587 95.908 26.4667 95.512 26.1787 95C25.8987 94.48 25.7587 93.88 25.7587 93.2C25.7587 92.528 25.9027 91.936 26.1907 91.424C26.4867 90.904 26.8867 90.508 27.3907 90.236C27.8947 89.956 28.4587 89.816 29.0827 89.816C29.7067 89.816 30.2707 89.956 30.7747 90.236C31.2787 90.508 31.6747 90.9 31.9627 91.412C32.2587 91.924 32.4067 92.52 32.4067 93.2C32.4067 93.88 32.2547 94.48 31.9507 95C31.6547 95.512 31.2507 95.908 30.7387 96.188C30.2267 96.468 29.6587 96.608 29.0347 96.608ZM29.0347 95.648C29.4267 95.648 29.7947 95.556 30.1387 95.372C30.4827 95.188 30.7587 94.912 30.9667 94.544C31.1827 94.176 31.2907 93.728 31.2907 93.2C31.2907 92.672 31.1867 92.224 30.9787 91.856C30.7707 91.488 30.4987 91.216 30.1627 91.04C29.8267 90.856 29.4627 90.764 29.0707 90.764C28.6707 90.764 28.3027 90.856 27.9667 91.04C27.6387 91.216 27.3747 91.488 27.1747 91.856C26.9747 92.224 26.8747 92.672 26.8747 93.2C26.8747 93.736 26.9707 94.188 27.1627 94.556C27.3627 94.924 27.6267 95.2 27.9547 95.384C28.2827 95.56 28.6427 95.648 29.0347 95.648ZM33.4345 93.188C33.4345 92.516 33.5705 91.928 33.8425 91.424C34.1145 90.912 34.4865 90.516 34.9585 90.236C35.4385 89.956 35.9745 89.816 36.5665 89.816C37.0785 89.816 37.5545 89.936 37.9945 90.176C38.4345 90.408 38.7705 90.716 39.0025 91.1V87.62H40.1065V96.5H39.0025V95.264C38.7865 95.656 38.4665 95.98 38.0425 96.236C37.6185 96.484 37.1225 96.608 36.5545 96.608C35.9705 96.608 35.4385 96.464 34.9585 96.176C34.4865 95.888 34.1145 95.484 33.8425 94.964C33.5705 94.444 33.4345 93.852 33.4345 93.188ZM39.0025 93.2C39.0025 92.704 38.9025 92.272 38.7025 91.904C38.5025 91.536 38.2305 91.256 37.8865 91.064C37.5505 90.864 37.1785 90.764 36.7705 90.764C36.3625 90.764 35.9905 90.86 35.6545 91.052C35.3185 91.244 35.0505 91.524 34.8505 91.892C34.6505 92.26 34.5505 92.692 34.5505 93.188C34.5505 93.692 34.6505 94.132 34.8505 94.508C35.0505 94.876 35.3185 95.16 35.6545 95.36C35.9905 95.552 36.3625 95.648 36.7705 95.648C37.1785 95.648 37.5505 95.552 37.8865 95.36C38.2305 95.16 38.5025 94.876 38.7025 94.508C38.9025 94.132 39.0025 93.696 39.0025 93.2ZM47.9518 92.96C47.9518 93.168 47.9398 93.388 47.9158 93.62H42.6598C42.6998 94.268 42.9198 94.776 43.3198 95.144C43.7278 95.504 44.2198 95.684 44.7958 95.684C45.2678 95.684 45.6598 95.576 45.9718 95.36C46.2918 95.136 46.5158 94.84 46.6438 94.472H47.8198C47.6438 95.104 47.2918 95.62 46.7638 96.02C46.2358 96.412 45.5798 96.608 44.7958 96.608C44.1718 96.608 43.6118 96.468 43.1158 96.188C42.6278 95.908 42.2438 95.512 41.9638 95C41.6838 94.48 41.5438 93.88 41.5438 93.2C41.5438 92.52 41.6798 91.924 41.9518 91.412C42.2238 90.9 42.6038 90.508 43.0918 90.236C43.5878 89.956 44.1558 89.816 44.7958 89.816C45.4198 89.816 45.9718 89.952 46.4518 90.224C46.9318 90.496 47.2998 90.872 47.5558 91.352C47.8198 91.824 47.9518 92.36 47.9518 92.96ZM46.8238 92.732C46.8238 92.316 46.7318 91.96 46.5478 91.664C46.3638 91.36 46.1118 91.132 45.7918 90.98C45.4798 90.82 45.1318 90.74 44.7478 90.74C44.1958 90.74 43.7238 90.916 43.3318 91.268C42.9478 91.62 42.7278 92.108 42.6718 92.732H46.8238ZM50.4852 90.992C50.6772 90.616 50.9492 90.324 51.3012 90.116C51.6612 89.908 52.0972 89.804 52.6092 89.804V90.932H52.3212C51.0972 90.932 50.4852 91.596 50.4852 92.924V96.5H49.3932V89.924H50.4852V90.992ZM53.4618 93.188C53.4618 92.516 53.5978 91.928 53.8698 91.424C54.1418 90.912 54.5138 90.516 54.9858 90.236C55.4658 89.956 55.9978 89.816 56.5818 89.816C57.1578 89.816 57.6578 89.94 58.0818 90.188C58.5058 90.436 58.8218 90.748 59.0298 91.124V89.924H60.1338V96.5H59.0298V95.276C58.8138 95.66 58.4898 95.98 58.0578 96.236C57.6338 96.484 57.1378 96.608 56.5698 96.608C55.9858 96.608 55.4578 96.464 54.9858 96.176C54.5138 95.888 54.1418 95.484 53.8698 94.964C53.5978 94.444 53.4618 93.852 53.4618 93.188ZM59.0298 93.2C59.0298 92.704 58.9298 92.272 58.7298 91.904C58.5298 91.536 58.2578 91.256 57.9138 91.064C57.5778 90.864 57.2058 90.764 56.7978 90.764C56.3898 90.764 56.0178 90.86 55.6818 91.052C55.3458 91.244 55.0778 91.524 54.8778 91.892C54.6778 92.26 54.5778 92.692 54.5778 93.188C54.5778 93.692 54.6778 94.132 54.8778 94.508C55.0778 94.876 55.3458 95.16 55.6818 95.36C56.0178 95.552 56.3898 95.648 56.7978 95.648C57.2058 95.648 57.5778 95.552 57.9138 95.36C58.2578 95.16 58.5298 94.876 58.7298 94.508C58.9298 94.132 59.0298 93.696 59.0298 93.2ZM63.3112 90.824V94.7C63.3112 95.02 63.3792 95.248 63.5152 95.384C63.6512 95.512 63.8872 95.576 64.2232 95.576H65.0272V96.5H64.0432C63.4352 96.5 62.9792 96.36 62.6752 96.08C62.3712 95.8 62.2192 95.34 62.2192 94.7V90.824H61.3672V89.924H62.2192V88.268H63.3112V89.924H65.0272V90.824H63.3112ZM72.3503 92.96C72.3503 93.168 72.3383 93.388 72.3143 93.62H67.0583C67.0983 94.268 67.3183 94.776 67.7183 95.144C68.1263 95.504 68.6183 95.684 69.1943 95.684C69.6663 95.684 70.0583 95.576 70.3703 95.36C70.6903 95.136 70.9143 94.84 71.0423 94.472H72.2183C72.0423 95.104 71.6903 95.62 71.1623 96.02C70.6343 96.412 69.9783 96.608 69.1943 96.608C68.5703 96.608 68.0103 96.468 67.5143 96.188C67.0263 95.908 66.6423 95.512 66.3623 95C66.0823 94.48 65.9423 93.88 65.9423 93.2C65.9423 92.52 66.0783 91.924 66.3503 91.412C66.6223 90.9 67.0023 90.508 67.4903 90.236C67.9863 89.956 68.5543 89.816 69.1943 89.816C69.8183 89.816 70.3703 89.952 70.8503 90.224C71.3303 90.496 71.6983 90.872 71.9543 91.352C72.2183 91.824 72.3503 92.36 72.3503 92.96ZM71.2223 92.732C71.2223 92.316 71.1303 91.96 70.9463 91.664C70.7623 91.36 70.5103 91.132 70.1903 90.98C69.8783 90.82 69.5303 90.74 69.1463 90.74C68.5943 90.74 68.1223 90.916 67.7303 91.268C67.3463 91.62 67.1263 92.108 67.0703 92.732H71.2223Z" fill="white"/>
<path d="M52.1845 136.862H55.1125V137.75H51.0925V129.386H52.1845V136.862ZM59.1401 137.858C58.5241 137.858 57.9641 137.718 57.4601 137.438C56.9641 137.158 56.5721 136.762 56.2841 136.25C56.0041 135.73 55.8641 135.13 55.8641 134.45C55.8641 133.778 56.0081 133.186 56.2961 132.674C56.5921 132.154 56.9921 131.758 57.4961 131.486C58.0001 131.206 58.5641 131.066 59.1881 131.066C59.8121 131.066 60.3761 131.206 60.8801 131.486C61.3841 131.758 61.7801 132.15 62.0681 132.662C62.3641 133.174 62.5121 133.77 62.5121 134.45C62.5121 135.13 62.3601 135.73 62.0561 136.25C61.7601 136.762 61.3561 137.158 60.8441 137.438C60.3321 137.718 59.7641 137.858 59.1401 137.858ZM59.1401 136.898C59.5321 136.898 59.9001 136.806 60.2441 136.622C60.5881 136.438 60.8641 136.162 61.0721 135.794C61.2881 135.426 61.3961 134.978 61.3961 134.45C61.3961 133.922 61.2921 133.474 61.0841 133.106C60.8761 132.738 60.6041 132.466 60.2681 132.29C59.9321 132.106 59.5681 132.014 59.1761 132.014C58.7761 132.014 58.4081 132.106 58.0721 132.29C57.7441 132.466 57.4801 132.738 57.2801 133.106C57.0801 133.474 56.9801 133.922 56.9801 134.45C56.9801 134.986 57.0761 135.438 57.2681 135.806C57.4681 136.174 57.7321 136.45 58.0601 136.634C58.3881 136.81 58.7481 136.898 59.1401 136.898ZM72.7079 131.174L70.6559 137.75H69.5279L67.9439 132.53L66.3599 137.75H65.2319L63.1679 131.174H64.2839L65.7959 136.694L67.4279 131.174H68.5439L70.1399 136.706L71.6279 131.174H72.7079Z" fill="white"/>
<path d="M7.43018 179H6.33818L1.94618 172.34V179H0.854176V170.624H1.94618L6.33818 177.272V170.624H7.43018V179ZM12.1597 179.108C11.5437 179.108 10.9837 178.968 10.4797 178.688C9.98368 178.408 9.59168 178.012 9.30368 177.5C9.02368 176.98 8.88368 176.38 8.88368 175.7C8.88368 175.028 9.02768 174.436 9.31568 173.924C9.61168 173.404 10.0117 173.008 10.5157 172.736C11.0197 172.456 11.5837 172.316 12.2077 172.316C12.8317 172.316 13.3957 172.456 13.8997 172.736C14.4037 173.008 14.7997 173.4 15.0877 173.912C15.3837 174.424 15.5317 175.02 15.5317 175.7C15.5317 176.38 15.3797 176.98 15.0757 177.5C14.7797 178.012 14.3757 178.408 13.8637 178.688C13.3517 178.968 12.7837 179.108 12.1597 179.108ZM12.1597 178.148C12.5517 178.148 12.9197 178.056 13.2637 177.872C13.6077 177.688 13.8837 177.412 14.0917 177.044C14.3077 176.676 14.4157 176.228 14.4157 175.7C14.4157 175.172 14.3117 174.724 14.1037 174.356C13.8957 173.988 13.6237 173.716 13.2877 173.54C12.9517 173.356 12.5877 173.264 12.1957 173.264C11.7957 173.264 11.4277 173.356 11.0917 173.54C10.7637 173.716 10.4997 173.988 10.2997 174.356C10.0997 174.724 9.99968 175.172 9.99968 175.7C9.99968 176.236 10.0957 176.688 10.2877 177.056C10.4877 177.424 10.7517 177.7 11.0797 177.884C11.4077 178.06 11.7677 178.148 12.1597 178.148ZM25.1107 177.14H21.4627L20.7907 179H19.6387L22.6627 170.684H23.9227L26.9347 179H25.7827L25.1107 177.14ZM24.7987 176.252L23.2867 172.028L21.7747 176.252H24.7987ZM31.4566 172.304C32.2566 172.304 32.9046 172.548 33.4006 173.036C33.8966 173.516 34.1446 174.212 34.1446 175.124V179H33.0646V175.28C33.0646 174.624 32.9006 174.124 32.5726 173.78C32.2446 173.428 31.7966 173.252 31.2286 173.252C30.6526 173.252 30.1926 173.432 29.8486 173.792C29.5126 174.152 29.3446 174.676 29.3446 175.364V179H28.2526V172.424H29.3446V173.36C29.5606 173.024 29.8526 172.764 30.2206 172.58C30.5966 172.396 31.0086 172.304 31.4566 172.304ZM38.7964 179.108C38.1804 179.108 37.6204 178.968 37.1164 178.688C36.6204 178.408 36.2284 178.012 35.9404 177.5C35.6604 176.98 35.5204 176.38 35.5204 175.7C35.5204 175.028 35.6644 174.436 35.9524 173.924C36.2484 173.404 36.6484 173.008 37.1524 172.736C37.6564 172.456 38.2204 172.316 38.8444 172.316C39.4684 172.316 40.0324 172.456 40.5364 172.736C41.0404 173.008 41.4364 173.4 41.7244 173.912C42.0204 174.424 42.1684 175.02 42.1684 175.7C42.1684 176.38 42.0164 176.98 41.7124 177.5C41.4164 178.012 41.0124 178.408 40.5004 178.688C39.9884 178.968 39.4204 179.108 38.7964 179.108ZM38.7964 178.148C39.1884 178.148 39.5564 178.056 39.9004 177.872C40.2444 177.688 40.5204 177.412 40.7284 177.044C40.9444 176.676 41.0524 176.228 41.0524 175.7C41.0524 175.172 40.9484 174.724 40.7404 174.356C40.5324 173.988 40.2604 173.716 39.9244 173.54C39.5884 173.356 39.2244 173.264 38.8324 173.264C38.4324 173.264 38.0644 173.356 37.7284 173.54C37.4004 173.716 37.1364 173.988 36.9364 174.356C36.7364 174.724 36.6364 175.172 36.6364 175.7C36.6364 176.236 36.7324 176.688 36.9244 177.056C37.1244 177.424 37.3884 177.7 37.7164 177.884C38.0444 178.06 38.4044 178.148 38.7964 178.148ZM51.5122 172.304C52.0242 172.304 52.4802 172.412 52.8802 172.628C53.2802 172.836 53.5962 173.152 53.8282 173.576C54.0602 174 54.1762 174.516 54.1762 175.124V179H53.0962V175.28C53.0962 174.624 52.9322 174.124 52.6042 173.78C52.2842 173.428 51.8482 173.252 51.2962 173.252C50.7282 173.252 50.2762 173.436 49.9402 173.804C49.6042 174.164 49.4362 174.688 49.4362 175.376V179H48.3562V175.28C48.3562 174.624 48.1922 174.124 47.8642 173.78C47.5442 173.428 47.1082 173.252 46.5562 173.252C45.9882 173.252 45.5362 173.436 45.2002 173.804C44.8642 174.164 44.6962 174.688 44.6962 175.376V179H43.6042V172.424H44.6962V173.372C44.9122 173.028 45.2002 172.764 45.5602 172.58C45.9282 172.396 46.3322 172.304 46.7722 172.304C47.3242 172.304 47.8122 172.428 48.2362 172.676C48.6602 172.924 48.9762 173.288 49.1842 173.768C49.3682 173.304 49.6722 172.944 50.0962 172.688C50.5202 172.432 50.9922 172.304 51.5122 172.304ZM55.5595 175.688C55.5595 175.016 55.6955 174.428 55.9675 173.924C56.2395 173.412 56.6115 173.016 57.0835 172.736C57.5635 172.456 58.0955 172.316 58.6795 172.316C59.2555 172.316 59.7555 172.44 60.1795 172.688C60.6035 172.936 60.9195 173.248 61.1275 173.624V172.424H62.2315V179H61.1275V177.776C60.9115 178.16 60.5875 178.48 60.1555 178.736C59.7315 178.984 59.2355 179.108 58.6675 179.108C58.0835 179.108 57.5555 178.964 57.0835 178.676C56.6115 178.388 56.2395 177.984 55.9675 177.464C55.6955 176.944 55.5595 176.352 55.5595 175.688ZM61.1275 175.7C61.1275 175.204 61.0275 174.772 60.8275 174.404C60.6275 174.036 60.3555 173.756 60.0115 173.564C59.6755 173.364 59.3035 173.264 58.8955 173.264C58.4875 173.264 58.1155 173.36 57.7795 173.552C57.4435 173.744 57.1755 174.024 56.9755 174.392C56.7755 174.76 56.6755 175.192 56.6755 175.688C56.6755 176.192 56.7755 176.632 56.9755 177.008C57.1755 177.376 57.4435 177.66 57.7795 177.86C58.1155 178.052 58.4875 178.148 58.8955 178.148C59.3035 178.148 59.6755 178.052 60.0115 177.86C60.3555 177.66 60.6275 177.376 60.8275 177.008C61.0275 176.632 61.1275 176.196 61.1275 175.7ZM65.1688 170.12V179H64.0768V170.12H65.1688ZM72.694 172.424L68.734 182.096H67.606L68.902 178.928L66.25 172.424H67.462L69.526 177.752L71.566 172.424H72.694Z" fill="white"/>
<path d="M83.1953 203.624C84.2113 202.808 85.0073 202.14 85.5833 201.62C86.1593 201.092 86.6433 200.544 87.0353 199.976C87.4353 199.4 87.6353 198.836 87.6353 198.284C87.6353 197.764 87.5073 197.356 87.2513 197.06C87.0033 196.756 86.5993 196.604 86.0393 196.604C85.4953 196.604 85.0713 196.776 84.7673 197.12C84.4713 197.456 84.3113 197.908 84.2873 198.476H83.2313C83.2633 197.58 83.5353 196.888 84.0473 196.4C84.5593 195.912 85.2193 195.668 86.0273 195.668C86.8513 195.668 87.5033 195.896 87.9833 196.352C88.4713 196.808 88.7153 197.436 88.7153 198.236C88.7153 198.9 88.5153 199.548 88.1153 200.18C87.7233 200.804 87.2753 201.356 86.7713 201.836C86.2673 202.308 85.6233 202.86 84.8393 203.492H88.9673V204.404H83.1953V203.624ZM99.2008 198.584C99.2008 199.28 98.9608 199.86 98.4808 200.324C98.0088 200.78 97.2848 201.008 96.3088 201.008H94.7008V204.5H93.6088V196.136H96.3088C97.2528 196.136 97.9688 196.364 98.4568 196.82C98.9528 197.276 99.2008 197.864 99.2008 198.584ZM96.3088 200.108C96.9168 200.108 97.3648 199.976 97.6528 199.712C97.9408 199.448 98.0848 199.072 98.0848 198.584C98.0848 197.552 97.4928 197.036 96.3088 197.036H94.7008V200.108H96.3088ZM109.042 196.196V204.5H107.95V198.308L105.19 204.5H104.422L101.65 198.296V204.5H100.558V196.196H101.734L104.806 203.06L107.878 196.196H109.042Z" fill="white"/>
<path d="M150.571 198.008C150.627 197.272 150.911 196.696 151.423 196.28C151.935 195.864 152.599 195.656 153.415 195.656C153.959 195.656 154.427 195.756 154.819 195.956C155.219 196.148 155.519 196.412 155.719 196.748C155.927 197.084 156.031 197.464 156.031 197.888C156.031 198.384 155.887 198.812 155.599 199.172C155.319 199.532 154.951 199.764 154.495 199.868V199.928C155.015 200.056 155.427 200.308 155.731 200.684C156.035 201.06 156.187 201.552 156.187 202.16C156.187 202.616 156.083 203.028 155.875 203.396C155.667 203.756 155.355 204.04 154.939 204.248C154.523 204.456 154.023 204.56 153.439 204.56C152.591 204.56 151.895 204.34 151.351 203.9C150.807 203.452 150.503 202.82 150.439 202.004H151.495C151.551 202.484 151.747 202.876 152.083 203.18C152.419 203.484 152.867 203.636 153.427 203.636C153.987 203.636 154.411 203.492 154.699 203.204C154.995 202.908 155.143 202.528 155.143 202.064C155.143 201.464 154.943 201.032 154.543 200.768C154.143 200.504 153.539 200.372 152.731 200.372H152.455V199.46H152.743C153.479 199.452 154.035 199.332 154.411 199.1C154.787 198.86 154.975 198.492 154.975 197.996C154.975 197.572 154.835 197.232 154.555 196.976C154.283 196.72 153.891 196.592 153.379 196.592C152.883 196.592 152.483 196.72 152.179 196.976C151.875 197.232 151.695 197.576 151.639 198.008H150.571ZM166.632 198.584C166.632 199.28 166.392 199.86 165.912 200.324C165.44 200.78 164.716 201.008 163.74 201.008H162.132V204.5H161.04V196.136H163.74C164.684 196.136 165.4 196.364 165.888 196.82C166.384 197.276 166.632 197.864 166.632 198.584ZM163.74 200.108C164.348 200.108 164.796 199.976 165.084 199.712C165.372 199.448 165.516 199.072 165.516 198.584C165.516 197.552 164.924 197.036 163.74 197.036H162.132V200.108H163.74ZM176.474 196.196V204.5H175.382V198.308L172.622 204.5H171.854L169.082 198.296V204.5H167.99V196.196H169.166L172.238 203.06L175.31 196.196H176.474Z" fill="white"/>
<path d="M217.598 202.568V201.74L221.81 195.908H223.118V201.62H224.318V202.568H223.118V204.5H222.038V202.568H217.598ZM222.086 197.048L218.858 201.62H222.086V197.048ZM234.381 198.584C234.381 199.28 234.141 199.86 233.661 200.324C233.189 200.78 232.465 201.008 231.489 201.008H229.881V204.5H228.789V196.136H231.489C232.433 196.136 233.149 196.364 233.637 196.82C234.133 197.276 234.381 197.864 234.381 198.584ZM231.489 200.108C232.097 200.108 232.545 199.976 232.833 199.712C233.121 199.448 233.265 199.072 233.265 198.584C233.265 197.552 232.673 197.036 231.489 197.036H229.881V200.108H231.489ZM244.222 196.196V204.5H243.13V198.308L240.37 204.5H239.602L236.83 198.296V204.5H235.738V196.196H236.914L239.986 203.06L243.058 196.196H244.222Z" fill="white"/>
<path d="M291.662 196.772H287.45V199.508C287.634 199.252 287.906 199.044 288.266 198.884C288.626 198.716 289.014 198.632 289.43 198.632C290.094 198.632 290.634 198.772 291.05 199.052C291.466 199.324 291.762 199.68 291.938 200.12C292.122 200.552 292.214 201.012 292.214 201.5C292.214 202.076 292.106 202.592 291.89 203.048C291.674 203.504 291.342 203.864 290.894 204.128C290.454 204.392 289.906 204.524 289.25 204.524C288.41 204.524 287.73 204.308 287.21 203.876C286.69 203.444 286.374 202.868 286.262 202.148H287.33C287.434 202.604 287.654 202.96 287.99 203.216C288.326 203.472 288.75 203.6 289.262 203.6C289.894 203.6 290.37 203.412 290.69 203.036C291.01 202.652 291.17 202.148 291.17 201.524C291.17 200.9 291.01 200.42 290.69 200.084C290.37 199.74 289.898 199.568 289.274 199.568C288.85 199.568 288.478 199.672 288.158 199.88C287.846 200.08 287.618 200.356 287.474 200.708H286.442V195.812H291.662V196.772ZM302.636 198.584C302.636 199.28 302.396 199.86 301.916 200.324C301.444 200.78 300.72 201.008 299.744 201.008H298.136V204.5H297.044V196.136H299.744C300.688 196.136 301.404 196.364 301.892 196.82C302.388 197.276 302.636 197.864 302.636 198.584ZM299.744 200.108C300.352 200.108 300.8 199.976 301.088 199.712C301.376 199.448 301.52 199.072 301.52 198.584C301.52 197.552 300.928 197.036 299.744 197.036H298.136V200.108H299.744ZM312.478 196.196V204.5H311.386V198.308L308.626 204.5H307.858L305.086 198.296V204.5H303.994V196.196H305.17L308.242 203.06L311.314 196.196H312.478Z" fill="white"/>
<path d="M359.234 197.888C359.058 197 358.51 196.556 357.59 196.556C356.878 196.556 356.346 196.832 355.994 197.384C355.642 197.928 355.47 198.828 355.478 200.084C355.662 199.668 355.966 199.344 356.39 199.112C356.822 198.872 357.302 198.752 357.83 198.752C358.654 198.752 359.31 199.008 359.798 199.52C360.294 200.032 360.542 200.74 360.542 201.644C360.542 202.188 360.434 202.676 360.218 203.108C360.01 203.54 359.69 203.884 359.258 204.14C358.834 204.396 358.318 204.524 357.71 204.524C356.886 204.524 356.242 204.34 355.778 203.972C355.314 203.604 354.99 203.096 354.806 202.448C354.622 201.8 354.53 201 354.53 200.048C354.53 197.112 355.554 195.644 357.602 195.644C358.386 195.644 359.002 195.856 359.45 196.28C359.898 196.704 360.162 197.24 360.242 197.888H359.234ZM357.602 199.676C357.258 199.676 356.934 199.748 356.63 199.892C356.326 200.028 356.078 200.24 355.886 200.528C355.702 200.808 355.61 201.152 355.61 201.56C355.61 202.168 355.786 202.664 356.138 203.048C356.49 203.424 356.994 203.612 357.65 203.612C358.21 203.612 358.654 203.44 358.982 203.096C359.318 202.744 359.486 202.272 359.486 201.68C359.486 201.056 359.326 200.568 359.006 200.216C358.686 199.856 358.218 199.676 357.602 199.676ZM370.986 198.584C370.986 199.28 370.746 199.86 370.266 200.324C369.794 200.78 369.07 201.008 368.094 201.008H366.486V204.5H365.394V196.136H368.094C369.038 196.136 369.754 196.364 370.242 196.82C370.738 197.276 370.986 197.864 370.986 198.584ZM368.094 200.108C368.702 200.108 369.15 199.976 369.438 199.712C369.726 199.448 369.87 199.072 369.87 198.584C369.87 197.552 369.278 197.036 368.094 197.036H366.486V200.108H368.094ZM380.827 196.196V204.5H379.735V198.308L376.975 204.5H376.207L373.435 198.296V204.5H372.343V196.196H373.519L376.591 203.06L379.663 196.196H380.827Z" fill="white"/>
<path d="M428.005 196.676L424.669 204.5H423.565L426.949 196.784H422.317V195.848H428.005V196.676ZM438.187 198.584C438.187 199.28 437.947 199.86 437.467 200.324C436.995 200.78 436.271 201.008 435.295 201.008H433.687V204.5H432.595V196.136H435.295C436.239 196.136 436.955 196.364 437.443 196.82C437.939 197.276 438.187 197.864 438.187 198.584ZM435.295 200.108C435.903 200.108 436.351 199.976 436.639 199.712C436.927 199.448 437.071 199.072 437.071 198.584C437.071 197.552 436.479 197.036 435.295 197.036H433.687V200.108H435.295ZM448.028 196.196V204.5H446.936V198.308L444.176 204.5H443.408L440.636 198.296V204.5H439.544V196.196H440.72L443.792 203.06L446.864 196.196H448.028Z" fill="white"/>
<path d="M491.517 199.988C491.069 199.812 490.725 199.556 490.485 199.22C490.245 198.884 490.125 198.476 490.125 197.996C490.125 197.564 490.233 197.176 490.449 196.832C490.665 196.48 490.985 196.204 491.409 196.004C491.841 195.796 492.361 195.692 492.969 195.692C493.577 195.692 494.093 195.796 494.517 196.004C494.949 196.204 495.273 196.48 495.489 196.832C495.713 197.176 495.825 197.564 495.825 197.996C495.825 198.46 495.701 198.868 495.453 199.22C495.205 199.564 494.865 199.82 494.433 199.988C494.929 200.14 495.321 200.408 495.609 200.792C495.905 201.168 496.053 201.624 496.053 202.16C496.053 202.68 495.925 203.136 495.669 203.528C495.413 203.912 495.049 204.212 494.577 204.428C494.113 204.636 493.577 204.74 492.969 204.74C492.361 204.74 491.825 204.636 491.361 204.428C490.905 204.212 490.549 203.912 490.293 203.528C490.037 203.136 489.909 202.68 489.909 202.16C489.909 201.624 490.053 201.164 490.341 200.78C490.629 200.396 491.021 200.132 491.517 199.988ZM494.769 198.128C494.769 197.64 494.609 197.264 494.289 197C493.969 196.736 493.529 196.604 492.969 196.604C492.417 196.604 491.981 196.736 491.661 197C491.341 197.264 491.181 197.644 491.181 198.14C491.181 198.588 491.345 198.948 491.673 199.22C492.009 199.492 492.441 199.628 492.969 199.628C493.505 199.628 493.937 199.492 494.265 199.22C494.601 198.94 494.769 198.576 494.769 198.128ZM492.969 200.468C492.377 200.468 491.893 200.608 491.517 200.888C491.141 201.16 490.953 201.572 490.953 202.124C490.953 202.636 491.133 203.048 491.493 203.36C491.861 203.672 492.353 203.828 492.969 203.828C493.585 203.828 494.073 203.672 494.433 203.36C494.793 203.048 494.973 202.636 494.973 202.124C494.973 201.588 494.789 201.18 494.421 200.9C494.053 200.612 493.569 200.468 492.969 200.468ZM506.474 198.584C506.474 199.28 506.234 199.86 505.754 200.324C505.282 200.78 504.558 201.008 503.582 201.008H501.974V204.5H500.882V196.136H503.582C504.526 196.136 505.242 196.364 505.73 196.82C506.226 197.276 506.474 197.864 506.474 198.584ZM503.582 200.108C504.19 200.108 504.638 199.976 504.926 199.712C505.214 199.448 505.358 199.072 505.358 198.584C505.358 197.552 504.766 197.036 503.582 197.036H501.974V200.108H503.582ZM516.315 196.196V204.5H515.223V198.308L512.463 204.5H511.695L508.923 198.296V204.5H507.831V196.196H509.007L512.079 203.06L515.151 196.196H516.315Z" fill="white"/>
<path d="M518.332 92.0421C500.328 92.0421 487.866 59.5 475.814 59.5C466.44 59.5 449.701 107.5 440.662 107.5C430.487 107.5 417.915 78.5 408.188 78.5C395.407 78.5 382.646 38 370.358 38C355.293 38 320.476 74.5 306.415 74.5C296.361 74.5 282.904 74.5 272.602 74.5C261.339 74.5 253.854 84.5002 240.463 84.5002C227.072 84.5002 222.287 59.5 209.328 59.5C196.369 59.5 190.175 94.0632 173.172 94.0632C160.044 94.0632 152.135 107.5 141.033 107.5C130.607 107.5 120.99 94.0632 110.924 94.0632C102.198 94.0632 93.4937 107.5 82.1112 107.5" stroke="#90CAF9" stroke-width="2" stroke-linecap="round"/>
<path d="M82.446 108C93.8286 108 102.198 94.0632 110.924 94.0632C120.99 94.0632 130.272 108 140.698 108C151.8 108 160.714 94.0632 173.841 94.0632C190.844 94.0632 196.369 59.5 209.328 59.5C222.287 59.5 226.402 84.5 239.793 84.5C253.185 84.5 258.866 74 270.128 74H310.012C324.072 74 355.038 37.5 370.103 37.5C382.391 37.5 395.407 78.5 408.188 78.5C417.915 78.5 430.487 107.5 440.662 107.5C449.701 107.5 466.44 59.5 475.814 59.5C487.866 59.5 500.328 92.0421 518.332 92.0421V175L82.446 175V108Z" fill="url(#paint0_linear_5_4826)"/>
<line x1="209.49" y1="59.5" x2="209.49" y2="173.5" stroke="#CBD5E1" stroke-linecap="round" stroke-dasharray="4 4"/>
<line x1="518.5" y1="92.5" x2="82.2753" y2="92.5" stroke="#8D8D8D" stroke-linecap="round"/>
<line x1="518.5" y1="51.5" x2="82.2753" y2="51.5" stroke="#8D8D8D" stroke-linecap="round"/>
<line x1="518.5" y1="9.5" x2="82.2753" y2="9.5" stroke="#8D8D8D" stroke-linecap="round"/>
<line x1="518.5" y1="174.5" x2="82.2753" y2="174.5" stroke="#8D8D8D" stroke-linecap="round"/>
<line x1="518.5" y1="133.5" x2="82.2753" y2="133.5" stroke="#8D8D8D" stroke-linecap="round"/>
<g filter="url(#filter0_d_5_4826)">
<ellipse cx="209.504" cy="59" rx="7.44491" ry="7" fill="white"/>
</g>
<ellipse cx="209.504" cy="59" rx="3.19068" ry="3" fill="#153885"/>
<defs>
<filter id="filter0_d_5_4826" x="194.059" y="45" width="30.8899" height="30" filterUnits="userSpaceOnUse" color-interpolation-filters="sRGB">
<feFlood flood-opacity="0" result="BackgroundImageFix"/>
<feColorMatrix in="SourceAlpha" type="matrix" values="0 0 0 0 0 0 0 0 0 0 0 0 0 0 0 0 0 0 127 0" result="hardAlpha"/>
<feOffset dy="1"/>
<feGaussianBlur stdDeviation="4"/>
<feComposite in2="hardAlpha" operator="out"/>
<feColorMatrix type="matrix" values="0 0 0 0 0.145098 0 0 0 0 0.388235 0 0 0 0 0.921569 0 0 0 0.25 0"/>
<feBlend mode="normal" in2="BackgroundImageFix" result="effect1_dropShadow_5_4826"/>
<feBlend mode="normal" in="SourceGraphic" in2="effect1_dropShadow_5_4826" result="shape"/>
</filter>
<linearGradient id="paint0_linear_5_4826" x1="300.389" y1="37.5" x2="300.389" y2="175" gradientUnits="userSpaceOnUse">
<stop stop-color="#B5BDD0"/>
<stop offset="1" stop-color="#6B7488"/>
</linearGradient>
</defs>
</svg>
