<svg width="28" height="28" viewBox="0 0 28 28" fill="none" xmlns="http://www.w3.org/2000/svg">
<path fill-rule="evenodd" clip-rule="evenodd" d="M0.529798 4.29652C0 5.57557 0 7.19704 0 10.44V17.4C0 20.643 0 22.2644 0.529798 23.5435C1.2362 25.2489 2.59113 26.6038 4.29652 27.3102C5.57557 27.84 7.19704 27.84 10.44 27.84H17.4C20.643 27.84 22.2644 27.84 23.5435 27.3102C25.2489 26.6038 26.6038 25.2489 27.3102 23.5435C27.84 22.2644 27.84 20.643 27.84 17.4V10.44C27.84 7.19705 27.84 5.57557 27.3102 4.29652C26.6038 2.59113 25.2489 1.2362 23.5435 0.529798C22.2644 0 20.643 0 17.4 0H10.44C7.19705 0 5.57557 0 4.29652 0.529798C2.59113 1.2362 1.2362 2.59113 0.529798 4.29652ZM16.0554 7.62219C16.0853 7.51389 15.9592 7.4306 15.8713 7.50061L8.10196 13.691C8.02781 13.75 8.052 13.8683 8.14339 13.8935L12.2848 15.0363C12.3466 15.0533 12.3828 15.1172 12.3658 15.1789L11.0516 19.9416C11.0217 20.0499 11.1478 20.1332 11.2357 20.0631L19.0051 13.8728C19.0792 13.8137 19.055 13.6955 18.9636 13.6703L14.8222 12.5275C14.7605 12.5104 14.7242 12.4466 14.7413 12.3848L16.0554 7.62219Z" fill="white"/>
</svg>
