<svg width="17" height="17" viewBox="0 0 17 17" fill="none" xmlns="http://www.w3.org/2000/svg">
<path d="M12.5755 7.56033L9.26102 2.28233C9.21293 2.21484 9.14941 2.15981 9.07574 2.12185C9.00207 2.08388 8.9204 2.06407 8.83752 2.06407C8.75465 2.06407 8.67297 2.08388 8.59931 2.12185C8.52564 2.15981 8.46211 2.21484 8.41402 2.28233L5.08452 7.58583C4.62235 8.33195 4.36472 9.18658 4.33752 10.0638C4.33752 11.2573 4.81163 12.4019 5.65554 13.2458C6.49946 14.0897 7.64405 14.5638 8.83752 14.5638C10.031 14.5638 11.1756 14.0897 12.0195 13.2458C12.8634 12.4019 13.3375 11.2573 13.3375 10.0638C13.3089 9.17672 13.046 8.31298 12.5755 7.56033ZM8.83752 13.5638C7.90967 13.5625 7.0202 13.1933 6.36411 12.5372C5.70802 11.8812 5.33885 10.9917 5.33752 10.0638C5.36461 9.36471 5.5746 8.68493 5.94652 8.09233L6.41402 7.34733L11.451 12.3843C11.1238 12.7549 10.7216 13.0517 10.2711 13.2551C9.82051 13.4586 9.33188 13.5635 8.83752 13.5638Z" fill="#0F172A"/>
</svg>
