<svg width="17" height="17" viewBox="0 0 17 17" fill="none" xmlns="http://www.w3.org/2000/svg">
<path d="M12.5755 7.56022L9.26102 2.28222C9.21293 2.21473 9.14941 2.1597 9.07574 2.12174C9.00207 2.08377 8.9204 2.06396 8.83752 2.06396C8.75465 2.06396 8.67297 2.08377 8.59931 2.12174C8.52564 2.1597 8.46211 2.21473 8.41402 2.28222L5.08452 7.58572C4.62235 8.33185 4.36472 9.18648 4.33752 10.0637C4.33752 11.2572 4.81163 12.4018 5.65554 13.2457C6.49946 14.0896 7.64405 14.5637 8.83752 14.5637C10.031 14.5637 11.1756 14.0896 12.0195 13.2457C12.8634 12.4018 13.3375 11.2572 13.3375 10.0637C13.3089 9.17661 13.046 8.31288 12.5755 7.56022ZM8.83752 13.5637C7.90967 13.5624 7.0202 13.1932 6.36411 12.5371C5.70802 11.881 5.33885 10.9916 5.33752 10.0637C5.36461 9.36461 5.5746 8.68482 5.94652 8.09222L6.41402 7.34722L11.451 12.3842C11.1238 12.7548 10.7216 13.0516 10.2711 13.255C9.82051 13.4585 9.33188 13.5634 8.83752 13.5637Z" fill="#FDFEFF"/>
</svg>
