<svg width="22" height="22" viewBox="0 0 22 22" fill="none" xmlns="http://www.w3.org/2000/svg">
<path d="M12.8333 7.33335V5.50002C12.8333 5.01379 12.6402 4.54747 12.2964 4.20366C11.9525 3.85984 11.4862 3.66669 11 3.66669H4.58333C4.0971 3.66669 3.63079 3.85984 3.28697 4.20366C2.94315 4.54747 2.75 5.01379 2.75 5.50002V16.5C2.75 16.9863 2.94315 17.4526 3.28697 17.7964C3.63079 18.1402 4.0971 18.3334 4.58333 18.3334H11C11.4862 18.3334 11.9525 18.1402 12.2964 17.7964C12.6402 17.4526 12.8333 16.9863 12.8333 16.5V14.6667" stroke="black" stroke-width="1.5" stroke-linecap="round" stroke-linejoin="round"/>
<path d="M6.41663 11H19.25M19.25 11L16.5 8.25M19.25 11L16.5 13.75" stroke="black" stroke-width="1.5" stroke-linecap="round" stroke-linejoin="round"/>
</svg>
