<svg width="22" height="22" viewBox="0 0 22 22" fill="none" xmlns="http://www.w3.org/2000/svg">
<path d="M12.8333 7.33317V5.49984C12.8333 5.01361 12.6402 4.54729 12.2964 4.20347C11.9525 3.85966 11.4862 3.6665 11 3.6665H4.58333C4.0971 3.6665 3.63079 3.85966 3.28697 4.20347C2.94315 4.54729 2.75 5.01361 2.75 5.49984V16.4998C2.75 16.9861 2.94315 17.4524 3.28697 17.7962C3.63079 18.14 4.0971 18.3332 4.58333 18.3332H11C11.4862 18.3332 11.9525 18.14 12.2964 17.7962C12.6402 17.4524 12.8333 16.9861 12.8333 16.4998V14.6665" stroke="white" stroke-width="1.5" stroke-linecap="round" stroke-linejoin="round"/>
<path d="M6.41675 11H19.2501M19.2501 11L16.5001 8.25M19.2501 11L16.5001 13.75" stroke="white" stroke-width="1.5" stroke-linecap="round" stroke-linejoin="round"/>
</svg>
