<svg width="28" height="28" viewBox="0 0 28 28" fill="none" xmlns="http://www.w3.org/2000/svg">
<path fill-rule="evenodd" clip-rule="evenodd" d="M12.4573 3.0431C13.1795 3.70062 13.002 4.7026 12.6757 5.42812L12.6751 5.4295C12.1938 6.49466 11.9298 7.6609 11.9395 8.89377L11.9396 8.89698C11.9591 13.4633 15.8891 17.4071 20.7592 17.6C21.4767 17.6289 22.1631 17.5808 22.8288 17.4654C23.2708 17.3874 23.703 17.3739 24.0917 17.4617C24.4856 17.5506 24.8912 17.76 25.1466 18.1647C25.4038 18.5721 25.4158 19.03 25.319 19.4246C25.2242 19.8109 25.0168 20.1859 24.75 20.5358C22.4304 23.6086 18.5786 25.5435 14.2912 25.3635C8.21144 25.1046 3.08215 20.3897 2.65691 14.5073C2.26856 9.29386 5.46514 4.77574 10.0725 2.89448C10.8113 2.5915 11.7831 2.42935 12.4573 3.0431ZM11.1937 4.38153C11.0876 4.39503 10.9355 4.43192 10.7355 4.514L10.734 4.51463C6.75496 6.13935 4.07543 9.9976 4.40214 14.3782L4.40229 14.3803C4.75816 19.3095 9.10456 23.3908 14.3646 23.615C18.0776 23.7709 21.3807 22.0955 23.3545 19.4798L23.3574 19.4761C23.4583 19.3438 23.5231 19.2354 23.5637 19.1521C23.4614 19.1482 23.3193 19.1558 23.1319 19.189L23.1292 19.1894C22.3425 19.3259 21.5325 19.3826 20.6893 19.3486C14.957 19.1212 10.2143 14.4793 10.1896 8.90607C10.1779 7.41047 10.4992 5.99512 11.0801 4.7095C11.1429 4.56958 11.1765 4.4609 11.1937 4.38153Z" fill="#AAAAAA"/>
</svg>
