<svg width="17" height="17" viewBox="0 0 17 17" fill="none" xmlns="http://www.w3.org/2000/svg">
<path fill-rule="evenodd" clip-rule="evenodd" d="M13.4036 6.93405C13.6734 5.86249 13.4544 4.88998 12.9213 4.11149C12.3316 3.25024 11.3796 2.65521 10.3557 2.38943C9.33009 2.12323 8.18716 2.17546 7.20005 2.66741C6.25244 3.13966 5.48567 3.99946 5.11375 5.2795C3.14916 5.7448 2.1646 7.39649 2.36248 8.96626C2.46468 9.77699 2.88247 10.5512 3.61753 11.0988C4.35214 11.6461 5.37035 11.9437 6.64222 11.8729C7.36187 11.8329 8.93398 11.8534 10.3307 11.8716C11.0266 11.8807 11.679 11.8892 12.1607 11.8894C13.1416 11.9442 13.92 11.7063 14.4703 11.2542C15.023 10.8001 15.2978 10.1679 15.3336 9.53495C15.397 8.41232 14.6971 7.21299 13.4036 6.93405Z" fill="#FDFEFF"/>
<path fill-rule="evenodd" clip-rule="evenodd" d="M6.61816 12.4943C6.85786 12.6314 6.94102 12.9369 6.80391 13.1766L6.06372 14.4706C5.92661 14.7103 5.62115 14.7934 5.38145 14.6563C5.14175 14.5192 5.05859 14.2137 5.1957 13.974L5.93589 12.6801C6.073 12.4404 6.37846 12.3572 6.61816 12.4943Z" fill="#FDFEFF"/>
<path fill-rule="evenodd" clip-rule="evenodd" d="M10.3513 12.561C10.591 12.6981 10.6742 13.0036 10.5371 13.2433L9.79688 14.5372C9.65977 14.7769 9.3543 14.8601 9.1146 14.723C8.87491 14.5859 8.79175 14.2804 8.92886 14.0407L9.66904 12.7467C9.80615 12.507 10.1116 12.4239 10.3513 12.561Z" fill="#FDFEFF"/>
<path fill-rule="evenodd" clip-rule="evenodd" d="M8.09736 13.3328C8.33829 13.4678 8.42421 13.7725 8.28928 14.0134L7.92507 14.6637C7.79014 14.9046 7.48544 14.9906 7.24451 14.8556C7.00358 14.7207 6.91765 14.416 7.05259 14.1751L7.41679 13.5248C7.55173 13.2838 7.85642 13.1979 8.09736 13.3328Z" fill="#FDFEFF"/>
<path fill-rule="evenodd" clip-rule="evenodd" d="M12.0148 13.4129C12.2558 13.5479 12.3417 13.8526 12.2068 14.0935L11.8426 14.7438C11.7076 14.9847 11.4029 15.0707 11.162 14.9357C10.9211 14.8008 10.8351 14.4961 10.9701 14.2552L11.3343 13.6048C11.4692 13.3639 11.7739 13.278 12.0148 13.4129Z" fill="#FDFEFF"/>
</svg>
