<svg width="24" height="25" viewBox="0 0 24 25" fill="none" xmlns="http://www.w3.org/2000/svg">
<path fill-rule="evenodd" clip-rule="evenodd" d="M13.5 4.25C13.5 3.95163 13.6185 3.66548 13.8295 3.4545C14.0405 3.24353 14.3266 3.125 14.625 3.125H20.25C20.5484 3.125 20.8345 3.24353 21.0455 3.4545C21.2565 3.66548 21.375 3.95163 21.375 4.25V9.875C21.375 10.1734 21.2565 10.4595 21.0455 10.6705C20.8345 10.8815 20.5484 11 20.25 11C19.9516 11 19.6655 10.8815 19.4545 10.6705C19.2435 10.4595 19.125 10.1734 19.125 9.875V5.375H14.625C14.3266 5.375 14.0405 5.25647 13.8295 5.0455C13.6185 4.83452 13.5 4.54837 13.5 4.25Z" fill="black"/>
<path fill-rule="evenodd" clip-rule="evenodd" d="M21.0443 3.45499C21.255 3.66592 21.3733 3.95186 21.3733 4.24999C21.3733 4.54811 21.255 4.83405 21.0443 5.04499L14.2943 11.795C14.081 11.9937 13.799 12.1019 13.5075 12.0967C13.216 12.0916 12.938 11.9735 12.7318 11.7674C12.5257 11.5613 12.4077 11.2832 12.4025 10.9918C12.3974 10.7003 12.5056 10.4182 12.7043 10.205L19.4543 3.45499C19.6652 3.24431 19.9512 3.12598 20.2493 3.12598C20.5474 3.12598 20.8333 3.24431 21.0443 3.45499Z" fill="black"/>
<path fill-rule="evenodd" clip-rule="evenodd" d="M4.875 8.375H10.5C10.7984 8.375 11.0845 8.25647 11.2955 8.0455C11.5065 7.83452 11.625 7.54837 11.625 7.25C11.625 6.95163 11.5065 6.66548 11.2955 6.4545C11.0845 6.24353 10.7984 6.125 10.5 6.125H4.5C4.00272 6.125 3.52581 6.32254 3.17417 6.67417C2.82254 7.02581 2.625 7.50272 2.625 8V20C2.625 20.4973 2.82254 20.9742 3.17417 21.3258C3.52581 21.6775 4.00272 21.875 4.5 21.875H16.5C16.9973 21.875 17.4742 21.6775 17.8258 21.3258C18.1775 20.9742 18.375 20.4973 18.375 20V14C18.375 13.7016 18.2565 13.4155 18.0455 13.2045C17.8345 12.9935 17.5484 12.875 17.25 12.875C16.9516 12.875 16.6655 12.9935 16.4545 13.2045C16.2435 13.4155 16.125 13.7016 16.125 14V19.625H4.875V8.375Z" fill="black"/>
</svg>
