<svg width="44" height="45" viewBox="0 0 44 45" fill="none" xmlns="http://www.w3.org/2000/svg">
<path d="M38.5 35.3334H9.16667V6.00008C9.16667 5.51385 8.97351 5.04754 8.6297 4.70372C8.28588 4.3599 7.81956 4.16675 7.33333 4.16675C6.8471 4.16675 6.38079 4.3599 6.03697 4.70372C5.69315 5.04754 5.5 5.51385 5.5 6.00008V37.1667C5.5 37.653 5.69315 38.1193 6.03697 38.4631C6.38079 38.8069 6.8471 39.0001 7.33333 39.0001H38.5C38.9862 39.0001 39.4525 38.8069 39.7964 38.4631C40.1402 38.1193 40.3333 37.653 40.3333 37.1667C40.3333 36.6805 40.1402 36.2142 39.7964 35.8704C39.4525 35.5266 38.9862 35.3334 38.5 35.3334Z" fill="white"/>
<path d="M12.834 20.6667V29.8334C12.834 30.3196 13.0271 30.786 13.371 31.1298C13.7148 31.4736 14.1811 31.6667 14.6673 31.6667C15.1535 31.6667 15.6199 31.4736 15.9637 31.1298C16.3075 30.786 16.5007 30.3196 16.5007 29.8334V20.6667C16.5007 20.1805 16.3075 19.7142 15.9637 19.3704C15.6199 19.0266 15.1535 18.8334 14.6673 18.8334C14.1811 18.8334 13.7148 19.0266 13.371 19.3704C13.0271 19.7142 12.834 20.1805 12.834 20.6667ZM20.1673 11.5001V29.8334C20.1673 30.3196 20.3605 30.786 20.7043 31.1298C21.0481 31.4736 21.5144 31.6667 22.0007 31.6667C22.4869 31.6667 22.9532 31.4736 23.297 31.1298C23.6408 30.786 23.834 30.3196 23.834 29.8334V11.5001C23.834 11.0139 23.6408 10.5475 23.297 10.2037C22.9532 9.8599 22.4869 9.66675 22.0007 9.66675C21.5144 9.66675 21.0481 9.8599 20.7043 10.2037C20.3605 10.5475 20.1673 11.0139 20.1673 11.5001ZM27.5007 15.1667V29.8334C27.5007 30.3196 27.6938 30.786 28.0376 31.1298C28.3814 31.4736 28.8478 31.6667 29.334 31.6667C29.8202 31.6667 30.2865 31.4736 30.6303 31.1298C30.9742 30.786 31.1673 30.3196 31.1673 29.8334V15.1667C31.1673 14.6805 30.9742 14.2142 30.6303 13.8704C30.2865 13.5266 29.8202 13.3334 29.334 13.3334C28.8478 13.3334 28.3814 13.5266 28.0376 13.8704C27.6938 14.2142 27.5007 14.6805 27.5007 15.1667ZM34.834 6.00008V29.8334C34.834 30.3196 35.0271 30.786 35.371 31.1298C35.7148 31.4736 36.1811 31.6667 36.6673 31.6667C37.1535 31.6667 37.6199 31.4736 37.9637 31.1298C38.3075 30.786 38.5007 30.3196 38.5007 29.8334V6.00008C38.5007 5.51385 38.3075 5.04754 37.9637 4.70372C37.6199 4.3599 37.1535 4.16675 36.6673 4.16675C36.1811 4.16675 35.7148 4.3599 35.371 4.70372C35.0271 5.04754 34.834 5.51385 34.834 6.00008Z" fill="white"/>
</svg>
