<svg width="44" height="45" viewBox="0 0 44 45" fill="none" xmlns="http://www.w3.org/2000/svg">
<g clip-path="url(#clip0_2_1427)">
<path d="M6.61916 15.232C5.98605 14.2015 5.64927 13.0061 5.64505 11.7747C5.63912 10.0221 6.31855 8.37187 7.55845 7.12784C8.80455 5.87745 10.4631 5.18892 12.2285 5.18892C14.79 5.18892 17.1381 6.69266 18.2105 9.01993C18.2866 9.1855 18.2939 9.37451 18.2307 9.54543C18.1675 9.71635 18.0391 9.85521 17.8736 9.93148C17.7081 10.0078 17.5191 10.0152 17.3481 9.95219C17.1771 9.88919 17.0382 9.76087 16.9617 9.59545C16.1131 7.7539 14.2552 6.56401 12.2285 6.56401C10.8312 6.56401 9.5186 7.10902 8.53238 8.09859C7.55244 9.08189 7.01533 10.3858 7.02005 11.7701C7.02341 12.7489 7.2899 13.6972 7.79074 14.5124C7.88476 14.6677 7.91353 14.8539 7.87077 15.0303C7.82802 15.2068 7.71721 15.3591 7.56253 15.4542C7.40784 15.5492 7.22185 15.5792 7.04513 15.5376C6.8684 15.496 6.71531 15.3862 6.61924 15.2322L6.61916 15.232ZM31.9087 32.2235C31.8784 32.0437 31.778 31.8833 31.6294 31.7775C31.4809 31.6718 31.2965 31.6293 31.1167 31.6596C30.756 31.7201 30.3909 31.7505 30.0252 31.7505H26.9735C26.7912 31.7505 26.6163 31.8229 26.4874 31.9518C26.3585 32.0808 26.286 32.2556 26.286 32.438C26.286 32.6203 26.3585 32.7952 26.4874 32.9241C26.6163 33.0531 26.7912 33.1255 26.9735 33.1255H30.0252C30.4672 33.1255 30.9111 33.0884 31.3448 33.0156C31.5246 32.9853 31.685 32.8849 31.7907 32.7364C31.8965 32.5878 31.9389 32.4034 31.9087 32.2236V32.2235ZM6.23588 33.1255H12.6767C12.8591 33.1255 13.0339 33.0531 13.1629 32.9241C13.2918 32.7952 13.3642 32.6203 13.3642 32.438C13.3642 32.2556 13.2918 32.0808 13.1629 31.9518C13.0339 31.8229 12.8591 31.7505 12.6767 31.7505H6.24129C3.72822 31.7307 1.68368 29.6701 1.68368 27.1569C1.68368 24.6436 3.72822 22.583 6.24129 22.5632C6.34544 22.5624 6.44804 22.5379 6.54136 22.4917C6.63467 22.4454 6.71625 22.3786 6.77994 22.2961C6.84362 22.2137 6.88775 22.1179 6.90898 22.016C6.93021 21.914 6.92799 21.8086 6.90249 21.7076C6.61177 20.5548 6.81604 19.2828 7.46298 18.2178C8.08834 17.1884 9.06073 16.4531 10.1309 16.2004C11.5577 15.8634 13.1361 16.2821 14.25 17.2931C14.345 17.3794 14.4623 17.4374 14.5886 17.4605C14.7149 17.4835 14.8452 17.4708 14.9646 17.4236C15.084 17.3764 15.1878 17.2968 15.2643 17.1937C15.3408 17.0905 15.3868 16.968 15.3972 16.8401C15.7076 13.0409 19.0534 10.1696 22.8556 10.4377C26.6579 10.7065 29.5663 14.0209 29.3388 17.8259C29.3332 17.9195 29.3468 18.0132 29.3788 18.1014C29.4107 18.1895 29.4604 18.2701 29.5247 18.3384C29.5889 18.4066 29.6665 18.461 29.7526 18.4981C29.8386 18.5353 29.9314 18.5544 30.0251 18.5544C30.6314 18.5544 31.2324 18.6376 31.8116 18.8018C31.9864 18.8497 32.1731 18.8266 32.331 18.7375C32.4889 18.6484 32.6052 18.5006 32.6547 18.3262C32.7041 18.1518 32.6826 17.9649 32.595 17.8062C32.5073 17.6475 32.3605 17.5299 32.1865 17.4789C31.7087 17.3436 31.2192 17.2537 30.7245 17.2102C30.6809 15.2494 29.9569 13.3829 28.6491 11.8926C27.1869 10.2263 25.1639 9.22257 22.9525 9.06625C20.7416 8.90976 18.5971 9.619 16.9151 11.0629C15.5347 12.2479 14.5963 13.8155 14.2043 15.5609C12.8865 14.7819 11.2903 14.5137 9.81483 14.8624C8.38861 15.1991 7.10307 16.162 6.28778 17.5041C5.59598 18.643 5.29701 19.971 5.42892 21.2488C2.54142 21.664 0.308594 24.1635 0.308594 27.157C0.308594 30.4224 2.96509 33.0999 6.23579 33.1257L6.23588 33.1255ZM26.7928 16.3385C26.8983 16.3386 27.0024 16.3144 27.0971 16.2678C27.1917 16.2211 27.2743 16.1534 27.3386 16.0697C27.4028 15.986 27.4469 15.8886 27.4675 15.7852C27.4881 15.6817 27.4846 15.5749 27.4573 15.473C26.9026 13.4033 25.1051 11.9728 22.8777 11.8289C22.4998 11.8048 22.1717 12.0918 22.1472 12.4706C22.1355 12.6525 22.1965 12.8317 22.3168 12.9687C22.4371 13.1056 22.607 13.1892 22.7889 13.201C24.4435 13.308 25.7233 14.3149 26.129 15.8288C26.1682 15.975 26.2544 16.1041 26.3744 16.1963C26.4944 16.2885 26.6414 16.3385 26.7927 16.3386L26.7928 16.3385ZM25.746 32.2622C25.8802 32.6703 25.8033 33.0969 25.5353 33.4326L17.3771 43.649C17.1918 43.8811 16.9214 44.0055 16.6434 44.0055C16.4989 44.0055 16.3524 43.9719 16.2146 43.9023C15.8117 43.6987 15.612 43.2522 15.7288 42.8162L17.8945 34.7336L14.7433 33.8892C14.3283 33.7781 14.0133 33.4801 13.8792 33.072C13.745 32.664 13.8218 32.2374 14.0899 31.9016L22.2481 21.6851H22.2482C22.53 21.3324 23.0079 21.2285 23.4107 21.432C23.8133 21.6352 24.0132 22.0818 23.8962 22.518L21.7305 30.6006L24.8817 31.445C25.2968 31.5563 25.6117 31.8541 25.7458 32.2622H25.746ZM24.3418 32.7238L21.2542 31.8965C20.9321 31.8102 20.6626 31.6033 20.4955 31.3138C20.3283 31.0244 20.2839 30.6875 20.3702 30.3653L22.0335 24.1576L15.2834 32.6105L18.3709 33.4379C18.5297 33.48 18.6784 33.5532 18.8087 33.6532C18.9389 33.7533 19.048 33.8781 19.1297 34.0206C19.2122 34.1626 19.2658 34.3195 19.2873 34.4823C19.3088 34.6451 19.2978 34.8105 19.2549 34.969L17.5916 41.1768L24.3417 32.7238H24.3418ZM43.6907 28.218C43.6907 31.6708 40.8817 34.4799 37.4289 34.4799C33.9761 34.4799 31.167 31.6708 31.167 28.218C31.1662 27.3566 31.3435 26.5042 31.6879 25.7146C32.0322 24.925 32.5362 24.2151 33.1681 23.6296V6.13501C33.1681 3.78565 35.0795 1.87423 37.4289 1.87423C39.7782 1.87423 41.6897 3.78556 41.6897 6.13501V23.6297C42.3216 24.2152 42.8256 24.9251 43.1699 25.7147C43.5143 26.5043 43.6916 27.3566 43.6908 28.2181L43.6907 28.218ZM34.5431 6.66206H40.3147V6.13492C40.3147 4.5437 39.0202 3.24914 37.4289 3.24914C35.8376 3.24914 34.5431 4.5437 34.5431 6.13492V6.66206ZM42.3157 28.218C42.3157 26.7667 41.6762 25.3996 40.5611 24.4672C40.484 24.4027 40.4219 24.322 40.3793 24.2309C40.3367 24.1397 40.3146 24.0404 40.3146 23.9398V17.792H39.4654C39.2831 17.792 39.1082 17.7196 38.9793 17.5906C38.8503 17.4617 38.7779 17.2868 38.7779 17.1045C38.7779 16.9222 38.8503 16.7473 38.9793 16.6184C39.1082 16.4894 39.2831 16.417 39.4654 16.417H40.3146V14.3617H39.4654C39.2831 14.3617 39.1082 14.2893 38.9793 14.1604C38.8503 14.0314 38.7779 13.8566 38.7779 13.6742C38.7779 13.4919 38.8503 13.317 38.9793 13.1881C39.1082 13.0592 39.2831 12.9867 39.4654 12.9867H40.3146V10.9314H39.4654C39.2831 10.9314 39.1082 10.859 38.9793 10.7301C38.8503 10.6011 38.7779 10.4263 38.7779 10.2439C38.7779 10.0616 38.8503 9.88673 38.9793 9.7578C39.1082 9.62887 39.2831 9.55644 39.4654 9.55644H40.3146V8.03706H34.543V23.9398C34.543 24.1435 34.4528 24.3366 34.2965 24.4672C33.1814 25.3995 32.5419 26.7666 32.5419 28.218C32.5419 30.9126 34.7342 33.1049 37.4288 33.1049C40.1234 33.1049 42.3156 30.9126 42.3156 28.218H42.3157ZM40.4748 28.218C40.4748 29.8975 39.1084 31.2639 37.4289 31.2639C35.7493 31.2639 34.383 29.8976 34.383 28.218C34.383 26.775 35.392 25.5641 36.7413 25.2514V20.571C36.7413 20.3886 36.8137 20.2138 36.9426 20.0848C37.0716 19.9559 37.2464 19.8835 37.4288 19.8835C37.6111 19.8835 37.786 19.9559 37.9149 20.0848C38.0438 20.2138 38.1163 20.3886 38.1163 20.571V25.2514C39.4657 25.564 40.4747 26.775 40.4747 28.218H40.4748ZM39.0998 28.218C39.0998 27.2967 38.3502 26.5472 37.4289 26.5472C36.5075 26.5472 35.758 27.2968 35.758 28.218C35.758 29.1393 36.5075 29.8889 37.4289 29.8889C38.3502 29.8889 39.0998 29.1394 39.0998 28.218ZM7.41107 35.8884L6.29569 37.8203C6.20452 37.9783 6.17982 38.1659 6.22701 38.342C6.27421 38.5182 6.38944 38.6683 6.54736 38.7595C6.70527 38.8507 6.89293 38.8754 7.06906 38.8282C7.24519 38.781 7.39536 38.6658 7.48652 38.5078L8.60191 36.5759C8.69164 36.4181 8.7153 36.2311 8.66773 36.0559C8.62017 35.8807 8.50523 35.7315 8.34801 35.6407C8.19079 35.5499 8.00404 35.525 7.82853 35.5714C7.65301 35.6178 7.50289 35.7318 7.41107 35.8884ZM2.54546 35.8884L1.43008 37.8203C1.33891 37.9783 1.31421 38.1659 1.3614 38.342C1.4086 38.5182 1.52383 38.6683 1.68175 38.7595C1.83966 38.8507 2.02732 38.8754 2.20345 38.8282C2.37958 38.781 2.52975 38.6658 2.62091 38.5078L3.7363 36.5759C3.82603 36.4181 3.84969 36.2311 3.80212 36.0559C3.75456 35.8807 3.63962 35.7315 3.4824 35.6407C3.32518 35.5499 3.13843 35.525 2.96292 35.5714C2.7874 35.6178 2.63728 35.7318 2.54546 35.8884ZM3.81596 40.4535C3.65806 40.3623 3.47041 40.3376 3.29429 40.3848C3.11817 40.432 2.96801 40.5472 2.87684 40.7051L1.43008 43.2109C1.33891 43.3689 1.31421 43.5565 1.3614 43.7326C1.4086 43.9088 1.52383 44.0589 1.68175 44.1501C1.83966 44.2413 2.02732 44.266 2.20345 44.2188C2.37958 44.1716 2.52975 44.0564 2.62091 43.8984L4.06767 41.3926C4.15884 41.2347 4.18354 41.047 4.13635 40.8709C4.08916 40.6948 3.97386 40.5446 3.81596 40.4535ZM12.2766 35.8884L11.1611 37.8203C11.07 37.9783 11.0453 38.1659 11.0925 38.342C11.1396 38.5182 11.2549 38.6683 11.4128 38.7595C11.5707 38.8507 11.7584 38.8754 11.9345 38.8282C12.1106 38.781 12.2608 38.6658 12.352 38.5078L13.4674 36.5759C13.5572 36.4181 13.5808 36.2311 13.5333 36.0559C13.4857 35.8807 13.3708 35.7315 13.2135 35.6407C13.0563 35.5499 12.8696 35.525 12.694 35.5714C12.5185 35.6178 12.3685 35.7318 12.2767 35.8884H12.2766ZM26.5375 38.7595C26.6157 38.8046 26.702 38.834 26.7915 38.8458C26.881 38.8576 26.972 38.8516 27.0592 38.8283C27.1465 38.8049 27.2282 38.7646 27.2998 38.7096C27.3715 38.6546 27.4316 38.586 27.4767 38.5078L28.5921 36.5759C28.6818 36.4181 28.7055 36.2311 28.6579 36.0559C28.6103 35.8807 28.4954 35.7315 28.3382 35.6407C28.181 35.5499 27.9942 35.525 27.8187 35.5714C27.6432 35.6178 27.4932 35.7318 27.4013 35.8884L26.286 37.8203C26.1948 37.9782 26.1701 38.1659 26.2173 38.342C26.2645 38.5181 26.3797 38.6683 26.5376 38.7595H26.5375ZM31.403 38.7595C31.4812 38.8046 31.5675 38.834 31.657 38.8458C31.7466 38.8576 31.8375 38.8516 31.9248 38.8283C32.012 38.8049 32.0937 38.7646 32.1654 38.7096C32.237 38.6546 32.2971 38.586 32.3422 38.5078L33.4576 36.5759C33.5473 36.4181 33.571 36.2311 33.5234 36.0559C33.4759 35.8807 33.3609 35.7315 33.2037 35.6407C33.0465 35.5499 32.8597 35.525 32.6842 35.5714C32.5087 35.6178 32.3587 35.7318 32.2669 35.8884L31.1515 37.8203C31.0603 37.9782 31.0356 38.1659 31.0828 38.342C31.13 38.5181 31.2452 38.6683 31.4031 38.7595H31.403ZM33.5373 40.4535C33.3794 40.3623 33.1917 40.3376 33.0156 40.3848C32.8395 40.432 32.6893 40.5472 32.5981 40.7051L31.1514 43.2109C31.0602 43.3689 31.0355 43.5565 31.0827 43.7326C31.1299 43.9088 31.2451 44.0589 31.4031 44.1501C31.561 44.2413 31.7486 44.266 31.9248 44.2188C32.1009 44.1716 32.2511 44.0564 32.3422 43.8984L33.789 41.3926C33.8801 41.2347 33.9049 41.047 33.8577 40.8709C33.8105 40.6948 33.6952 40.5446 33.5373 40.4535ZM28.6718 40.4535C28.5138 40.3623 28.3262 40.3376 28.1501 40.3848C27.974 40.432 27.8238 40.5472 27.7326 40.7051L26.2859 43.2109C26.2407 43.2891 26.2114 43.3754 26.1996 43.465C26.1879 43.5545 26.1938 43.6454 26.2172 43.7326C26.2406 43.8199 26.2809 43.9016 26.3358 43.9732C26.3908 44.0449 26.4593 44.105 26.5375 44.1501C26.6157 44.1952 26.702 44.2245 26.7916 44.2363C26.8811 44.2481 26.972 44.2421 27.0592 44.2188C27.1465 44.1954 27.2282 44.1551 27.2998 44.1001C27.3715 44.0452 27.4316 43.9766 27.4767 43.8984L28.9235 41.3926C29.0146 41.2347 29.0393 41.047 28.9921 40.8709C28.945 40.6948 28.8297 40.5446 28.6718 40.4535H28.6718ZM13.547 40.4535C13.3891 40.3623 13.2015 40.3376 13.0253 40.3848C12.8492 40.432 12.6991 40.5472 12.6079 40.7051L11.161 43.2109C11.0699 43.3689 11.0452 43.5565 11.0924 43.7326C11.1396 43.9088 11.2548 44.0589 11.4127 44.1501C11.5706 44.2413 11.7583 44.266 11.9344 44.2188C12.1105 44.1716 12.2607 44.0564 12.3519 43.8984L13.7987 41.3926C13.8899 41.2347 13.9146 41.047 13.8674 40.8709C13.8202 40.6948 13.705 40.5446 13.5471 40.4535H13.547ZM23.8062 40.4535C23.6483 40.3623 23.4607 40.3376 23.2846 40.3848C23.1084 40.432 22.9583 40.5472 22.8671 40.7051L21.4203 43.2109C21.3751 43.2891 21.3458 43.3754 21.334 43.465C21.3223 43.5545 21.3282 43.6454 21.3516 43.7326C21.375 43.8199 21.4153 43.9016 21.4702 43.9732C21.5252 44.0449 21.5937 44.105 21.6719 44.1501C21.7501 44.1952 21.8364 44.2245 21.9259 44.2363C22.0155 44.2481 22.1064 44.2421 22.1936 44.2188C22.2808 44.1954 22.3626 44.1551 22.4342 44.1001C22.5058 44.0452 22.566 43.9766 22.6111 43.8984L24.0579 41.3926C24.1491 41.2347 24.1738 41.047 24.1266 40.8709C24.0794 40.6948 23.9642 40.5446 23.8063 40.4535H23.8062ZM8.6814 40.4535C8.52349 40.3623 8.33584 40.3376 8.15972 40.3848C7.98361 40.432 7.83344 40.5472 7.74227 40.7051L6.29552 43.2109C6.20435 43.3689 6.17964 43.5565 6.22684 43.7326C6.27404 43.9088 6.38927 44.0589 6.54718 44.1501C6.7051 44.2413 6.89276 44.266 7.06889 44.2188C7.24502 44.1716 7.39518 44.0564 7.48635 43.8984L8.93311 41.3926C9.02427 41.2347 9.04898 41.047 9.00179 40.8709C8.9546 40.6948 8.8393 40.5446 8.6814 40.4535ZM19.656 8.1719C19.7766 8.17188 19.8949 8.14008 19.9992 8.07969L21.5156 7.20424C21.6722 7.11243 21.7861 6.96239 21.8325 6.78687C21.8789 6.61136 21.854 6.42461 21.7633 6.26739C21.6725 6.11017 21.5232 5.99523 21.348 5.94766C21.1728 5.9001 20.9859 5.92376 20.8281 6.01349L19.3117 6.88894C19.1805 6.96462 19.078 7.08149 19.0201 7.22139C18.9622 7.3613 18.9521 7.51642 18.9913 7.66266C19.0306 7.8089 19.117 7.9381 19.2373 8.03018C19.3575 8.12226 19.5046 8.17208 19.656 8.1719ZM12.2284 3.88379C12.4107 3.88379 12.5856 3.81136 12.7145 3.68242C12.8434 3.55349 12.9159 3.37863 12.9159 3.19629V1.44531C12.9159 1.26298 12.8434 1.08811 12.7145 0.959177C12.5856 0.830245 12.4107 0.757813 12.2284 0.757812C12.046 0.757813 11.8712 0.830245 11.7422 0.959177C11.6133 1.08811 11.5409 1.26298 11.5409 1.44531V3.19629C11.5409 3.37863 11.6133 3.55349 11.7422 3.68242C11.8712 3.81136 12.046 3.88379 12.2284 3.88379ZM16.1727 4.94065C16.2508 4.98582 16.3372 5.01515 16.4267 5.02696C16.5162 5.03876 16.6072 5.03281 16.6944 5.00944C16.7816 4.98607 16.8634 4.94575 16.935 4.89077C17.0066 4.83579 17.0667 4.76724 17.1119 4.68902L17.9873 3.17266C18.077 3.01484 18.1007 2.82793 18.0531 2.65272C18.0056 2.47752 17.8906 2.32824 17.7334 2.23747C17.5762 2.14669 17.3894 2.12179 17.2139 2.16819C17.0384 2.2146 16.8884 2.32854 16.7966 2.48516L15.9211 4.00152C15.83 4.15943 15.8052 4.34708 15.8524 4.5232C15.8996 4.69932 16.0148 4.84948 16.1727 4.94065ZM4.45766 15.4648L2.94129 16.3403C2.8631 16.3854 2.79458 16.4455 2.73962 16.5171C2.68466 16.5888 2.64435 16.6705 2.62099 16.7577C2.59763 16.8449 2.59167 16.9359 2.60346 17.0254C2.61525 17.1149 2.64456 17.2012 2.68971 17.2794C2.73485 17.3576 2.79496 17.4261 2.86659 17.4811C2.93822 17.5361 3.01998 17.5764 3.10719 17.5997C3.1944 17.6231 3.28535 17.629 3.37487 17.6173C3.46438 17.6055 3.55069 17.5762 3.62887 17.531L5.14524 16.6556C5.30186 16.5637 5.4158 16.4137 5.46221 16.2382C5.50861 16.0627 5.48371 15.8759 5.39293 15.7187C5.30216 15.5615 5.15288 15.4466 4.97767 15.399C4.80247 15.3514 4.61548 15.3751 4.45766 15.4648ZM1.90153 12.4597H3.65251C3.83484 12.4597 4.00971 12.3872 4.13864 12.2583C4.26757 12.1294 4.34001 11.9545 4.34001 11.7722C4.34001 11.5898 4.26757 11.415 4.13864 11.286C4.00971 11.1571 3.83484 11.0847 3.65251 11.0847H1.90153C1.7192 11.0847 1.54433 11.1571 1.4154 11.286C1.28646 11.415 1.21403 11.5898 1.21403 11.7722C1.21403 11.9545 1.28646 12.1294 1.4154 12.2583C1.54433 12.3872 1.7192 12.4597 1.90153 12.4597ZM7.34507 4.68894C7.3902 4.76715 7.45029 4.8357 7.52192 4.89068C7.59356 4.94566 7.67532 4.98599 7.76254 5.00935C7.84976 5.03272 7.94073 5.03867 8.03025 5.02687C8.11978 5.01507 8.2061 4.98574 8.28428 4.94056C8.44218 4.84939 8.5574 4.69923 8.60459 4.52311C8.65178 4.34699 8.62707 4.15934 8.53591 4.00144L7.66046 2.48507C7.56764 2.33048 7.4178 2.21854 7.24323 2.17337C7.06866 2.1282 6.88334 2.15341 6.72718 2.24357C6.57102 2.33373 6.45653 2.48162 6.40837 2.65539C6.36021 2.82916 6.38224 3.01489 6.46971 3.17257L7.34507 4.68894ZM2.94138 7.20416L4.45774 8.0796C4.53593 8.12478 4.62225 8.15411 4.71177 8.16591C4.80129 8.17771 4.89226 8.17176 4.97948 8.14839C5.06671 8.12502 5.14847 8.0847 5.2201 8.02972C5.29173 7.97474 5.35183 7.90619 5.39695 7.82798C5.48812 7.67007 5.51282 7.48242 5.46563 7.3063C5.41845 7.13018 5.30323 6.98002 5.14533 6.88885L3.62896 6.01341C3.47114 5.92368 3.28423 5.90001 3.10903 5.94758C2.93383 5.99515 2.78455 6.11008 2.69377 6.2673C2.603 6.42453 2.57809 6.61127 2.6245 6.78679C2.6709 6.9623 2.78476 7.11234 2.94138 7.20416Z" fill="black" stroke="black" stroke-width="0.6"/>
</g>
<defs>
<clipPath id="clip0_2_1427">
<rect width="44" height="44" fill="white" transform="translate(0 0.5)"/>
</clipPath>
</defs>
</svg>
