<svg width="185" height="186" viewBox="0 0 185 186" fill="none" xmlns="http://www.w3.org/2000/svg">
<mask id="mask0_2_884" style="mask-type:luminance" maskUnits="userSpaceOnUse" x="0" y="0" width="185" height="186">
<path d="M185 0.5H0V185.5H185V0.5Z" fill="white"/>
</mask>
<g mask="url(#mask0_2_884)">
<path d="M160.672 124.502C160.672 107.482 146.057 93.6067 128.112 93.6067C110.167 93.6067 95.5525 107.389 95.5525 124.502V155.397H128.482C146.242 155.119 160.672 141.429 160.672 124.502Z" fill="#EAEAEA" fill-opacity="0.39"/>
<path d="M140.138 123.021C140.138 113.215 135.698 104.427 128.76 98.4149C128.853 97.4899 128.945 96.5649 128.945 95.6399C128.945 77.7883 114.331 63.2658 96.385 63.2658C78.44 63.2658 63.8251 77.7883 63.8251 95.6399C63.8251 95.9183 63.825 96.2883 63.9185 96.5649C59.8475 94.5308 55.2225 93.4208 50.4125 93.4208C33.3 93.4208 19.425 107.296 19.425 124.408C19.425 141.151 32.7451 154.748 49.3951 155.302V155.396H109.15V155.302C126.263 154.563 140.138 140.411 140.138 123.021Z" fill="#F7F7F7" fill-opacity="0.48"/>
<path d="M163.651 59.7866C162.857 58.429 163.369 56.7373 164.646 55.9905L170.636 52.4899C171.994 51.6964 173.685 52.2068 174.432 53.4854C175.225 54.8422 174.714 56.5347 173.436 57.2815L167.447 60.7821C166.169 61.5289 164.444 61.1434 163.651 59.7866ZM143.314 41.6732C141.909 41.1018 141.215 39.3645 141.913 37.9924L144.651 31.6772C145.222 30.2718 146.96 29.5787 148.332 30.2766C149.737 30.8473 150.431 32.5845 149.733 33.9575L146.995 40.2711C146.423 41.6764 144.766 42.3237 143.314 41.6732ZM116.477 40.0682C114.985 40.3424 113.465 39.2519 113.315 37.7196L112.226 30.9241C111.951 29.4314 113.042 27.9121 114.574 27.7614C116.066 27.4873 117.585 28.5781 117.736 30.11L118.826 36.9055C119.101 38.3977 118.052 39.8347 116.477 40.0682ZM92.754 52.6888C91.7096 53.8349 89.9319 53.9096 88.8325 52.9451L83.6817 48.3485C82.5356 47.3042 82.4604 45.5257 83.4249 44.4262C84.4693 43.2801 86.2475 43.2062 87.3469 44.1707L92.4972 48.7664C93.7236 49.765 93.7984 51.5427 92.754 52.6888ZM81.8221 77.6133C81.6303 79.1183 80.253 80.2447 78.7942 80.1319L71.9494 79.4194C70.4445 79.2276 69.3176 77.8495 69.43 76.392C69.6218 74.8871 70.9991 73.7607 72.4569 73.8718L79.3027 74.5859C80.8875 74.7311 82.0139 76.1084 81.8221 77.6133ZM87.624 104.222C88.417 105.578 87.9062 107.271 86.6284 108.018L80.6389 111.518C79.2813 112.312 77.5897 111.801 76.8429 110.523C76.0494 109.165 76.5606 107.474 77.8384 106.727L83.8279 103.226C85.1855 102.433 86.8305 102.864 87.624 104.222ZM107.96 122.335C109.366 122.906 110.06 124.644 109.361 126.015L106.624 132.33C106.052 133.736 104.315 134.43 102.943 133.731C101.538 133.16 100.844 131.423 101.541 130.05L104.28 123.736C104.851 122.331 106.508 121.684 107.96 122.335ZM135.042 125.042C136.553 124.695 138.065 125.632 138.333 127.19L139.81 133.933C140.158 135.445 139.22 136.956 137.662 137.225C136.151 137.572 134.638 136.634 134.371 135.077L132.894 128.332C132.547 126.822 133.531 125.39 135.042 125.042ZM158.521 111.319C159.565 110.173 161.342 110.098 162.442 111.062L167.593 115.66C168.739 116.703 168.814 118.482 167.849 119.581C166.805 120.727 165.027 120.801 163.927 119.837L158.777 115.241C157.631 114.197 157.476 112.466 158.521 111.319ZM169.453 86.3949C169.644 84.8892 171.021 83.7628 172.48 83.8755L179.325 84.588C180.83 84.7799 181.957 86.158 181.844 87.6154C181.653 89.1204 180.276 90.2476 178.817 90.1356L171.972 89.4215C170.467 89.2297 169.261 87.8998 169.453 86.3949Z" fill="#FA761C"/>
<path d="M91.2976 82.0433C91.2893 100.997 106.648 116.368 125.6 116.376C144.554 116.385 159.924 101.027 159.933 82.0738V82.0433C159.935 63.09 144.574 47.7239 125.621 47.7211C106.667 47.7174 91.3004 63.0789 91.2976 82.0322V82.0433Z" fill="#FA761C"/>
</g>
</svg>
