<svg width="20" height="20" viewBox="0 0 20 20" fill="none" xmlns="http://www.w3.org/2000/svg">
<path fill-rule="evenodd" clip-rule="evenodd" d="M10.0001 1.04166C10.3453 1.04166 10.6251 1.32149 10.6251 1.66666V3.11112C10.6251 3.4563 10.3453 3.73612 10.0001 3.73612C9.6549 3.73612 9.37508 3.4563 9.37508 3.11112V1.66666C9.37508 1.32149 9.6549 1.04166 10.0001 1.04166ZM16.2754 3.72473C16.5194 3.96881 16.5194 4.36454 16.2754 4.60862L15.3101 5.5739C15.066 5.81797 14.6703 5.81797 14.4262 5.5739C14.1821 5.32982 14.1821 4.93409 14.4262 4.69001L15.3915 3.72473C15.6356 3.48066 16.0313 3.48066 16.2754 3.72473ZM3.72481 3.72473C3.96888 3.48066 4.36461 3.48066 4.60869 3.72473L5.57397 4.69001C5.81804 4.93409 5.81804 5.32982 5.57397 5.5739C5.32989 5.81797 4.93416 5.81797 4.69008 5.5739L3.72481 4.60862C3.48073 4.36454 3.48073 3.96881 3.72481 3.72473ZM1.04175 10C1.04175 9.65483 1.32157 9.37501 1.66675 9.37501H3.05564C3.40081 9.37501 3.68064 9.65483 3.68064 10C3.68064 10.3452 3.40081 10.625 3.05564 10.625H1.66675C1.32157 10.625 1.04175 10.3452 1.04175 10ZM16.3195 10C16.3195 9.65483 16.5993 9.37501 16.9445 9.37501H18.3334C18.6786 9.37501 18.9584 9.65483 18.9584 10C18.9584 10.3452 18.6786 10.625 18.3334 10.625H16.9445C16.5993 10.625 16.3195 10.3452 16.3195 10ZM5.57397 14.4261C5.81804 14.6702 5.81804 15.0659 5.57397 15.31L4.53925 16.3447C4.29517 16.5888 3.89944 16.5888 3.65536 16.3447C3.41128 16.1007 3.41128 15.7049 3.65536 15.4608L4.69008 14.4261C4.93416 14.182 5.32989 14.182 5.57397 14.4261ZM14.4262 14.4261C14.6703 14.182 15.066 14.182 15.3101 14.4261L16.2753 15.3914C16.5194 15.6355 16.5194 16.0312 16.2753 16.2753C16.0313 16.5194 15.6355 16.5194 15.3915 16.2753L14.4262 15.31C14.1821 15.0659 14.1821 14.6702 14.4262 14.4261ZM10.0001 16.3195C10.3453 16.3195 10.6251 16.5993 10.6251 16.9445V18.3333C10.6251 18.6785 10.3453 18.9583 10.0001 18.9583C9.6549 18.9583 9.37508 18.6785 9.37508 18.3333V16.9445C9.37508 16.5993 9.6549 16.3195 10.0001 16.3195Z" fill="white"/>
<path fill-rule="evenodd" clip-rule="evenodd" d="M5.20825 10C5.20825 7.35363 7.35355 5.20833 9.99992 5.20833C12.6463 5.20833 14.7916 7.35363 14.7916 10C14.7916 12.6464 12.6463 14.7917 9.99992 14.7917C7.35355 14.7917 5.20825 12.6464 5.20825 10Z" fill="white"/>
</svg>
