<svg width="17" height="17" viewBox="0 0 17 17" fill="none" xmlns="http://www.w3.org/2000/svg">
<g clip-path="url(#clip0_5_4687)">
<path fill-rule="evenodd" clip-rule="evenodd" d="M8.83757 1.39697C9.11371 1.39697 9.33757 1.62083 9.33757 1.89697V3.05254C9.33757 3.32868 9.11371 3.55254 8.83757 3.55254C8.56142 3.55254 8.33757 3.32868 8.33757 3.05254V1.89697C8.33757 1.62083 8.56142 1.39697 8.83757 1.39697ZM13.8578 3.54343C14.053 3.73869 14.053 4.05527 13.8578 4.25054L13.0856 5.02276C12.8903 5.21802 12.5737 5.21802 12.3785 5.02276C12.1832 4.8275 12.1832 4.51091 12.3785 4.31565L13.1507 3.54343C13.3459 3.34817 13.6625 3.34817 13.8578 3.54343ZM3.81735 3.54343C4.01261 3.34817 4.32919 3.34817 4.52445 3.54343L5.29667 4.31565C5.49194 4.51091 5.49194 4.8275 5.29667 5.02276C5.10141 5.21802 4.78483 5.21802 4.58957 5.02276L3.81735 4.25054C3.62208 4.05527 3.62208 3.73869 3.81735 3.54343ZM1.6709 8.56365C1.6709 8.28751 1.89476 8.06365 2.1709 8.06365H3.28201C3.55815 8.06365 3.78201 8.28751 3.78201 8.56365C3.78201 8.83979 3.55815 9.06365 3.28201 9.06365H2.1709C1.89476 9.06365 1.6709 8.83979 1.6709 8.56365ZM13.8931 8.56365C13.8931 8.28751 14.117 8.06365 14.3931 8.06365H15.5042C15.7804 8.06365 16.0042 8.28751 16.0042 8.56365C16.0042 8.83979 15.7804 9.06365 15.5042 9.06365H14.3931C14.117 9.06365 13.8931 8.83979 13.8931 8.56365ZM5.29667 12.1045C5.49194 12.2998 5.49194 12.6164 5.29667 12.8116L4.4689 13.6394C4.27363 13.8347 3.95705 13.8347 3.76179 13.6394C3.56653 13.4442 3.56653 13.1276 3.76179 12.9323L4.58957 12.1045C4.78483 11.9093 5.10141 11.9093 5.29667 12.1045ZM12.3785 12.1045C12.5737 11.9093 12.8903 11.9093 13.0856 12.1045L13.8578 12.8768C14.053 13.072 14.053 13.3886 13.8578 13.5839C13.6625 13.7791 13.3459 13.7791 13.1507 13.5839L12.3785 12.8116C12.1832 12.6164 12.1832 12.2998 12.3785 12.1045ZM8.83757 13.6192C9.11371 13.6192 9.33757 13.8431 9.33757 14.1192V15.2303C9.33757 15.5064 9.11371 15.7303 8.83757 15.7303C8.56142 15.7303 8.33757 15.5064 8.33757 15.2303V14.1192C8.33757 13.8431 8.56142 13.6192 8.83757 13.6192Z" fill="#FDFEFF"/>
<path fill-rule="evenodd" clip-rule="evenodd" d="M5.00415 8.56356C5.00415 6.44647 6.72039 4.73022 8.83748 4.73022C10.9546 4.73022 12.6708 6.44647 12.6708 8.56356C12.6708 10.6806 10.9546 12.3969 8.83748 12.3969C6.72039 12.3969 5.00415 10.6806 5.00415 8.56356Z" fill="#FDFEFF"/>
</g>
<defs>
<clipPath id="clip0_5_4687">
<rect width="16" height="16" fill="white" transform="translate(0.837524 0.563721)"/>
</clipPath>
</defs>
</svg>
