<svg width="17" height="17" viewBox="0 0 17 17" fill="none" xmlns="http://www.w3.org/2000/svg">
<g clip-path="url(#clip0_2_811)">
<path fill-rule="evenodd" clip-rule="evenodd" d="M8.83757 1.39719C9.11371 1.39719 9.33757 1.62104 9.33757 1.89719V3.05275C9.33757 3.32889 9.11371 3.55275 8.83757 3.55275C8.56142 3.55275 8.33757 3.32889 8.33757 3.05275V1.89719C8.33757 1.62104 8.56142 1.39719 8.83757 1.39719ZM13.8578 3.54364C14.053 3.7389 14.053 4.05549 13.8578 4.25075L13.0856 5.02297C12.8903 5.21823 12.5737 5.21823 12.3785 5.02297C12.1832 4.82771 12.1832 4.51113 12.3785 4.31586L13.1507 3.54364C13.3459 3.34838 13.6625 3.34838 13.8578 3.54364ZM3.81735 3.54364C4.01261 3.34838 4.32919 3.34838 4.52445 3.54364L5.29667 4.31586C5.49194 4.51113 5.49194 4.82771 5.29667 5.02297C5.10141 5.21823 4.78483 5.21823 4.58957 5.02297L3.81735 4.25075C3.62208 4.05549 3.62208 3.7389 3.81735 3.54364ZM1.6709 8.56386C1.6709 8.28772 1.89476 8.06386 2.1709 8.06386H3.28201C3.55815 8.06386 3.78201 8.28772 3.78201 8.56386C3.78201 8.84 3.55815 9.06386 3.28201 9.06386H2.1709C1.89476 9.06386 1.6709 8.84 1.6709 8.56386ZM13.8931 8.56386C13.8931 8.28772 14.117 8.06386 14.3931 8.06386H15.5042C15.7804 8.06386 16.0042 8.28772 16.0042 8.56386C16.0042 8.84 15.7804 9.06386 15.5042 9.06386H14.3931C14.117 9.06386 13.8931 8.84 13.8931 8.56386ZM5.29667 12.1048C5.49194 12.3 5.49194 12.6166 5.29667 12.8119L4.4689 13.6396C4.27363 13.8349 3.95705 13.8349 3.76179 13.6396C3.56653 13.4444 3.56653 13.1278 3.76179 12.9325L4.58957 12.1048C4.78483 11.9095 5.10141 11.9095 5.29667 12.1048ZM12.3785 12.1048C12.5737 11.9095 12.8903 11.9095 13.0856 12.1048L13.8578 12.877C14.053 13.0722 14.053 13.3888 13.8578 13.5841C13.6625 13.7793 13.3459 13.7793 13.1507 13.5841L12.3785 12.8119C12.1832 12.6166 12.1832 12.3 12.3785 12.1048ZM8.83757 13.6194C9.11371 13.6194 9.33757 13.8433 9.33757 14.1194V15.2305C9.33757 15.5067 9.11371 15.7305 8.83757 15.7305C8.56142 15.7305 8.33757 15.5067 8.33757 15.2305V14.1194C8.33757 13.8433 8.56142 13.6194 8.83757 13.6194Z" fill="#0F172A"/>
<path fill-rule="evenodd" clip-rule="evenodd" d="M5.00415 8.56383C5.00415 6.44674 6.72039 4.7305 8.83748 4.7305C10.9546 4.7305 12.6708 6.44674 12.6708 8.56383C12.6708 10.6809 10.9546 12.3972 8.83748 12.3972C6.72039 12.3972 5.00415 10.6809 5.00415 8.56383Z" fill="#0F172A"/>
</g>
<defs>
<clipPath id="clip0_2_811">
<rect width="16" height="16" fill="white" transform="translate(0.837524 0.563843)"/>
</clipPath>
</defs>
</svg>
