<svg width="17" height="17" viewBox="0 0 17 17" fill="none" xmlns="http://www.w3.org/2000/svg">
<g clip-path="url(#clip0_2_818)">
<path d="M8.83752 10.5638C9.94209 10.5638 10.8375 9.66838 10.8375 8.56381C10.8375 7.45924 9.94209 6.56381 8.83752 6.56381C7.73295 6.56381 6.83752 7.45924 6.83752 8.56381C6.83752 9.66838 7.73295 10.5638 8.83752 10.5638Z" fill="#0F172A"/>
<path d="M16.5921 7.88289C14.6987 5.59486 11.8326 3.39243 8.83756 3.39243C5.84196 3.39243 2.97516 5.5964 1.083 7.88289C0.755699 8.27824 0.755699 8.85217 1.083 9.24752C1.55871 9.82238 2.55601 10.9321 3.888 11.9017C7.24258 14.3437 10.4251 14.3491 13.7871 11.9017C15.1191 10.9321 16.1164 9.82238 16.5921 9.24752C16.9185 8.85294 16.9202 8.27953 16.5921 7.88289ZM8.83756 5.11669C10.7392 5.11669 12.2861 6.66359 12.2861 8.56521C12.2861 10.4668 10.7392 12.0137 8.83756 12.0137C6.93594 12.0137 5.38903 10.4668 5.38903 8.56521C5.38903 6.66359 6.93594 5.11669 8.83756 5.11669Z" fill="#0F172A"/>
</g>
<defs>
<clipPath id="clip0_2_818">
<rect width="16" height="16" fill="white" transform="translate(0.837524 0.563843)"/>
</clipPath>
</defs>
</svg>
