<svg width="17" height="17" viewBox="0 0 17 17" fill="none" xmlns="http://www.w3.org/2000/svg">
<g clip-path="url(#clip0_5_4700)">
<path d="M8.83752 10.5637C9.94209 10.5637 10.8375 9.66829 10.8375 8.56372C10.8375 7.45915 9.94209 6.56372 8.83752 6.56372C7.73295 6.56372 6.83752 7.45915 6.83752 8.56372C6.83752 9.66829 7.73295 10.5637 8.83752 10.5637Z" fill="#FDFEFF"/>
<path d="M16.5921 7.8828C14.6987 5.59477 11.8326 3.39233 8.83756 3.39233C5.84196 3.39233 2.97516 5.59631 1.083 7.8828C0.755699 8.27815 0.755699 8.85208 1.083 9.24743C1.55871 9.82229 2.55601 10.932 3.888 11.9016C7.24258 14.3436 10.4251 14.349 13.7871 11.9016C15.1191 10.932 16.1164 9.82229 16.5921 9.24743C16.9185 8.85285 16.9202 8.27944 16.5921 7.8828ZM8.83756 5.11659C10.7392 5.11659 12.2861 6.6635 12.2861 8.56512C12.2861 10.4667 10.7392 12.0136 8.83756 12.0136C6.93594 12.0136 5.38903 10.4667 5.38903 8.56512C5.38903 6.6635 6.93594 5.11659 8.83756 5.11659Z" fill="#FDFEFF"/>
</g>
<defs>
<clipPath id="clip0_5_4700">
<rect width="16" height="16" fill="white" transform="translate(0.837524 0.563721)"/>
</clipPath>
</defs>
</svg>
