<svg width="386" height="371" viewBox="0 0 386 371" fill="none" xmlns="http://www.w3.org/2000/svg">
<path d="M385.674 69.8781V300.268C385.674 315.954 381.81 329.464 375.398 340.198C363.383 360.356 347.362 366.426 327.512 368.907C300.803 372.408 268.394 369.624 229.734 365.987C211.419 364.25 207.966 363.79 195.701 363.469C186.6 363.281 172.847 363.252 151.478 363.984C115.595 365.373 104.344 366.098 87.1889 366.674C86.3217 366.71 85.4519 366.753 84.5799 366.798C68.2994 367.646 32.6319 370.521 15.8328 348.376C7.10004 336.865 0.325928 324.314 0.325928 300.268V69.8781C0.325928 5.88659 62.9448 3.36731 89.0207 5.54282C99.7376 6.41951 103.987 7.13452 115.616 8.29764C132.762 10.0723 147.785 10.6278 167.163 8.08035C189.548 5.12284 215.067 3.20198 237.52 1.9549H237.806C274.53 -0.0200707 313.286 -0.30629 338.389 2.98533C361.613 6.01477 377.846 26.149 383.442 49.8706C384.901 56.1102 385.674 62.8081 385.674 69.8781Z" fill="#D6E3FF"/>
<g opacity="0.6">
<path d="M243.604 220.181C243.604 220.181 260.323 91.5575 295.054 97.4051C329.785 103.253 264.754 181.112 261.073 218.71L243.604 220.181Z" fill="#A6D9D3"/>
</g>
<path d="M244.087 250.737C244.087 250.737 301.223 106.587 347.008 122.942C392.792 139.297 283.351 211.39 268.295 253.859L244.087 250.737Z" fill="#CFD3A3"/>
<path d="M257.614 252.602C267.478 223.084 288.263 194.652 303.961 176C320.98 155.778 335.846 142.382 335.994 142.249L335.164 141.324C335.015 141.458 320.084 154.912 303.009 175.199C287.241 193.935 266.361 222.504 256.434 252.208L257.614 252.602Z" fill="#ECEEBD"/>
<path d="M363.057 241.856C349.68 249.98 359.643 271.035 341.765 272.668C326.641 274.04 325.025 273.161 321.588 278.841C320.41 280.789 319.546 282.907 318.959 285.106C318.255 287.741 316.556 291.851 312.581 294.056C288.294 307.526 239.734 281.505 259.427 251.115C260.849 248.921 263.482 247.355 266.451 245.779C282.56 237.239 290.566 243.222 297.046 218.522C303.529 193.816 331.677 216.301 342.745 211.343C353.814 206.385 362.694 199.484 375.772 208.51C388.854 217.545 376.438 233.741 363.057 241.856Z" fill="#A6D9D3"/>
<g opacity="0.5">
<path d="M277.275 276.086L276.453 275.467C276.726 275.104 304.634 238.889 379.009 211.238L379.367 212.203C305.272 239.751 277.547 275.726 277.275 276.086Z" fill="#426F8B"/>
<path d="M313.925 231.018C300.961 225.533 296.779 219.068 296.608 218.796L297.479 218.246C297.519 218.311 301.693 224.725 314.327 230.069L313.925 231.018Z" fill="#426F8B"/>
<path d="M319.263 240.923C314.794 236.985 312.619 229.838 312.975 220.252C313.242 213.074 314.841 206.965 314.857 206.904L315.852 207.167C315.789 207.406 309.667 231.097 319.945 240.151L319.263 240.923Z" fill="#426F8B"/>
<path d="M338.413 232.415C336.896 231.836 336.039 231.416 336 231.396L336.46 230.476C336.64 230.566 354.705 239.402 374.294 231.968L374.659 232.93C358.874 238.92 344.066 234.57 338.413 232.415Z" fill="#426F8B"/>
<path d="M355.907 251.556C349.649 248.075 346.621 243.484 345.182 240.246C343.616 236.72 343.541 234.043 343.538 233.93L344.568 233.907C344.57 234.011 344.949 244.285 356.408 250.656L355.907 251.556Z" fill="#426F8B"/>
</g>
<path d="M317.147 101.532C318.679 97.0276 320.565 96.1743 322.331 96.7747C324.096 97.3748 325.072 99.2014 323.541 103.706C320.75 111.911 316.205 114.79 316.205 114.79C316.205 114.79 314.317 109.857 317.147 101.532Z" fill="#A6D9D3"/>
<path d="M348.403 193.212C352.986 191.072 355.029 191.891 355.868 193.688C356.707 195.484 356.024 197.577 351.441 199.717C343.093 203.616 337.539 202.248 337.539 202.248C337.539 202.248 339.933 197.168 348.403 193.212Z" fill="#A6D9D3"/>
<path d="M331.967 189.621C333.522 185.125 335.413 184.281 337.175 184.891C338.937 185.5 339.904 187.332 338.349 191.828C335.517 200.019 330.957 202.874 330.957 202.874C330.957 202.874 329.093 197.932 331.967 189.621Z" fill="#A6D9D3"/>
<path d="M190.938 310.596C190.938 310.596 124.442 175.647 88.5019 195.067C52.5616 214.486 153.096 275.621 171.209 315.519L190.938 310.596Z" fill="#A6D9D3"/>
<path d="M179.469 315.643C179.469 315.643 86.3831 197.759 48.443 225.661C10.5029 253.564 132.097 290.045 157.873 325.269L179.469 315.643Z" fill="#CDEEE8"/>
<path d="M167.436 321.134C150.077 296.484 122.888 275.878 103.136 262.932C81.722 248.898 64.2039 240.599 64.0293 240.516L64.5427 239.427C64.7179 239.509 82.3127 247.845 103.796 261.925C123.635 274.928 150.952 295.635 168.42 320.441L167.436 321.134Z" fill="#426F8B"/>
<path d="M217.626 364.843C216.252 364.7 214.878 364.585 213.504 364.442C208.266 363.955 202.255 363.641 195.701 363.469C190.148 363.354 184.223 363.326 178.04 363.383C177.324 363.383 176.58 363.383 175.865 363.411C171.17 363.469 166.361 363.555 161.467 363.698C158.175 363.783 154.826 363.869 151.477 363.984C147.785 364.127 144.121 364.27 140.4 364.384C140.285 364.413 140.142 364.413 140.028 364.413C138.539 364.47 137.051 364.556 135.563 364.613C134.532 364.642 133.473 364.699 132.414 364.728C125.516 365.043 118.703 365.358 112.091 365.644C103.276 366.045 94.8601 366.417 87.1887 366.674C85.7007 362.581 84.5271 358.059 82.6382 353.966V353.937C82.5233 353.737 82.4374 353.565 82.3228 353.336V353.307C80.2334 348.985 77.2563 345.15 72.2186 342.802C66.8663 340.312 61.5134 336.963 56.9625 333.099C56.5904 332.784 56.2181 332.469 55.8462 332.126C46.9159 324.14 41.592 314.236 46.6297 305.621C46.7441 305.42 46.8871 305.22 47.0018 305.019C47.9173 303.588 49.1197 302.214 50.6369 300.898C66.4942 287.158 79.1456 294.915 94.4019 299.781C99.7836 301.527 107.483 298.436 115.698 295.144C120.364 293.255 125.172 291.28 129.838 290.078C130.038 290.049 130.21 289.992 130.382 289.963C132.271 289.477 134.132 289.162 135.963 289.019C136.536 288.961 137.08 288.933 137.624 288.933H138.053C145.209 288.933 151.478 292.253 155.428 302.529C155.542 302.815 155.656 303.102 155.771 303.359C156.229 304.533 156.687 305.678 157.145 306.737C157.632 307.825 158.09 308.855 158.547 309.828C158.547 309.828 158.547 309.857 158.576 309.885C162.498 318.129 166.276 322.479 170.484 325.056C177.868 329.578 186.57 328.691 199.565 333.815C203.716 335.446 207.379 337.135 209.583 339.797C216.424 348.155 218.656 356.742 217.626 364.843Z" fill="#CFD3A3"/>
<path d="M178.04 363.383C177.324 363.383 176.58 363.383 175.865 363.411C162.755 353.594 139.971 339.024 105.823 325.342C105.308 325.114 104.793 324.913 104.277 324.713C87.7043 318.129 68.4981 311.775 46.4578 306.279L46.6298 305.621L46.8013 304.962C46.8586 304.991 46.9445 304.991 47.0019 305.019C80.577 313.435 107.655 323.796 128.836 333.929C129.237 334.129 129.666 334.33 130.067 334.53H130.095C152.536 345.378 168.251 355.912 178.04 363.383Z" fill="#C4C695"/>
<path d="M135.11 321.397C151.322 312.303 155.864 303.206 156.049 302.824L154.826 302.231C154.782 302.321 150.243 311.35 134.444 320.212L135.11 321.397Z" fill="#C4C695"/>
<path d="M129.553 335.178C134.843 329.357 136.651 319.658 134.782 307.131C133.383 297.749 130.389 289.965 130.359 289.888L129.092 290.379C129.21 290.682 140.711 320.879 128.547 334.265L129.553 335.178Z" fill="#C4C695"/>
<path d="M103.177 326.814C105.084 325.833 106.147 325.156 106.196 325.124L105.456 323.984C105.234 324.129 82.8183 338.368 56.0216 331.478L55.6836 332.793C77.276 338.345 96.0741 330.47 103.177 326.814Z" fill="#C4C695"/>
<path d="M83.0174 354.494C90.7217 349.011 94.0245 342.542 95.4388 338.082C96.9781 333.226 96.6846 329.701 96.6721 329.553L95.3177 329.674C95.3295 329.809 96.3353 343.349 82.2288 353.387L83.0174 354.494Z" fill="#C4C695"/>
<path d="M40.1414 274.904C33.5817 273.07 32.2129 270.441 32.9314 267.87C33.6498 265.3 36.1835 263.76 42.7426 265.593C54.6914 268.932 59.1659 275.201 59.1659 275.201C59.1659 275.201 52.2641 278.291 40.1414 274.904Z" fill="#B2C9C6"/>
<path d="M150.235 183.333C150.235 183.333 143.847 221.489 157.327 243.764C164.401 255.451 167.821 253.014 170.843 257.637C178.273 269.002 175.224 290.712 179.368 300.178C185.005 313.057 192.878 311.763 192.878 311.763L295.64 284.783C295.64 284.783 291.145 274.731 285.331 249.269C283.206 239.962 278.623 229.071 283.956 214.802C291.393 194.906 283.928 169.371 279.273 145.332C277.09 134.06 271.585 113.096 268.478 105.683C265.204 97.8725 263.874 67.4044 252.479 67.9701C232.345 68.9699 242.647 95.9124 241.31 110.114C239.973 124.316 150.235 183.333 150.235 183.333Z" fill="#FFCDA8"/>
<path d="M221.058 253.406C220.749 253.442 220.429 253.334 220.204 253.086C220.007 252.869 215.362 247.67 213.051 238.91C211.695 233.767 211.435 228.463 212.279 223.146C213.331 216.527 216.105 209.877 220.526 203.383C220.835 202.929 221.454 202.812 221.908 203.121C222.362 203.43 222.479 204.049 222.171 204.503C217.916 210.753 215.249 217.13 214.244 223.458C213.443 228.5 213.69 233.528 214.975 238.402C217.164 246.699 221.634 251.701 221.679 251.751C222.047 252.158 222.016 252.787 221.609 253.155C221.45 253.3 221.256 253.383 221.058 253.406Z" fill="#EA9F75"/>
<path d="M262.349 215.622L249.269 73.5427C249.058 71.7041 248.507 70.1545 247.719 68.8672C244.724 63.9816 238.342 62.7207 233.745 63.2459L180.501 69.4976L179.555 69.6291L161.379 71.7567L156.23 72.3609C150.399 73.0439 146.222 78.3236 146.905 84.1549L147.562 91.2994L147.93 95.1347L148.245 98.5755L148.849 105.116L150.767 125.709L151.397 132.355V132.381L151.87 137.425L152.159 140.472V140.761L152.816 147.695L153.998 160.435L154.602 166.897V166.923L154.681 167.685V167.842L155.758 179.426L155.784 179.636L156.31 185.179L156.835 190.879L156.914 191.667V191.693L160.512 230.542C161.195 236.347 166.895 239.736 172.727 239.053L212.022 233.353H212.049L213.992 233.064L253.025 227.416C258.856 226.733 263.032 221.453 262.349 215.622Z" fill="#6F4975"/>
<path d="M234.1 65.931L156.504 75.0384C152.169 75.5471 149.056 79.3759 149.551 83.5902L163.678 223.379C164.721 232.937 169.814 231.968 174.148 231.46L252.09 220.123C256.425 219.614 259.462 214.214 258.967 209.999L246.117 73.1678C245.622 68.9531 238.435 65.4221 234.1 65.931Z" fill="#225BD9"/>
<path d="M236.838 176.572L177.238 183.567C173.908 183.958 171.517 186.899 171.897 190.136L173.558 203.139C174.359 210.48 178.271 209.736 181.6 209.345L241.466 200.638C244.796 200.247 247.128 196.099 246.748 192.862L246.069 182.13C245.866 176.535 240.168 176.181 236.838 176.572Z" fill="white"/>
<path d="M234.982 178.926L179.769 185.407C176.684 185.769 174.442 188.26 174.76 190.971L176.162 201.859C176.828 208.008 180.455 207.344 183.539 206.982L239.016 199.063C242.101 198.701 244.302 195.198 243.984 192.486L243.465 183.493C243.335 178.802 238.068 178.564 234.982 178.926Z" fill="#E28569"/>
<path d="M191.989 195.235C191.94 194.822 191.566 194.528 191.154 194.577L188.214 194.927L190.294 192.618C190.572 192.31 190.548 191.835 190.24 191.557C189.932 191.279 189.456 191.304 189.178 191.612L186.871 194.172L186.644 190.639C186.617 190.225 186.261 189.911 185.846 189.937C185.432 189.964 185.117 190.321 185.144 190.735L185.376 194.353L182.213 191.725C181.894 191.46 181.42 191.503 181.155 191.823C180.889 192.142 180.933 192.616 181.252 192.881L184.277 195.395L180.774 195.811C180.362 195.86 180.067 196.234 180.116 196.646C180.162 197.028 180.486 197.309 180.862 197.309C180.891 197.309 180.921 197.307 180.951 197.304L184.419 196.891L182.302 199.24C182.024 199.548 182.049 200.023 182.357 200.301C182.5 200.431 182.68 200.494 182.86 200.494C183.065 200.494 183.27 200.411 183.418 200.246L185.599 197.827L185.792 200.843C185.818 201.241 186.148 201.547 186.541 201.547C186.558 201.547 186.574 201.546 186.59 201.545C187.005 201.518 187.319 201.161 187.292 200.747L187.099 197.74L189.575 199.797C189.715 199.913 189.885 199.97 190.054 199.97C190.27 199.97 190.484 199.878 190.633 199.699C190.898 199.38 190.854 198.906 190.535 198.641L187.928 196.474L191.332 196.07C191.744 196.02 192.038 195.647 191.989 195.235Z" fill="white"/>
<path d="M207.575 193.071C207.526 192.659 207.152 192.365 206.74 192.414L203.8 192.764L205.881 190.455C206.158 190.147 206.134 189.672 205.826 189.394C205.518 189.116 205.042 189.141 204.764 189.449L202.457 192.009L202.23 188.476C202.203 188.062 201.847 187.748 201.432 187.774C201.018 187.801 200.703 188.158 200.73 188.572L200.962 192.19L197.799 189.562C197.48 189.297 197.006 189.34 196.741 189.66C196.476 189.979 196.519 190.453 196.838 190.718L199.863 193.232L196.36 193.648C195.948 193.697 195.653 194.071 195.703 194.483C195.748 194.865 196.072 195.146 196.448 195.146C196.478 195.146 196.507 195.144 196.537 195.141L200.005 194.728L197.888 197.077C197.61 197.385 197.635 197.86 197.943 198.138C198.086 198.268 198.266 198.331 198.446 198.331C198.651 198.331 198.856 198.248 199.004 198.083L201.185 195.664L201.378 198.68C201.404 199.078 201.734 199.384 202.127 199.384C202.144 199.384 202.16 199.383 202.176 199.382C202.591 199.355 202.905 198.998 202.878 198.584L202.685 195.577L205.16 197.634C205.301 197.75 205.471 197.807 205.64 197.807C205.856 197.807 206.07 197.715 206.219 197.536C206.484 197.217 206.44 196.743 206.121 196.478L203.514 194.311L206.918 193.907C207.33 193.858 207.624 193.484 207.575 193.071Z" fill="white"/>
<path d="M223.995 190.838C223.946 190.426 223.573 190.132 223.16 190.181L220.22 190.531L222.301 188.222C222.579 187.914 222.554 187.439 222.246 187.161C221.938 186.883 221.462 186.908 221.185 187.216L218.877 189.776L218.65 186.243C218.624 185.829 218.267 185.515 217.852 185.541C217.438 185.568 217.124 185.925 217.15 186.339L217.382 189.957L214.219 187.329C213.9 187.064 213.426 187.107 213.161 187.427C212.896 187.746 212.94 188.22 213.259 188.485L216.284 190.999L212.78 191.415C212.368 191.464 212.074 191.838 212.123 192.25C212.168 192.632 212.493 192.913 212.868 192.913C212.898 192.913 212.928 192.911 212.958 192.907L216.425 192.495L214.308 194.844C214.03 195.152 214.055 195.627 214.363 195.905C214.507 196.034 214.687 196.098 214.866 196.098C215.071 196.098 215.276 196.014 215.424 195.85L217.605 193.431L217.798 196.447C217.824 196.845 218.154 197.151 218.548 197.151C218.564 197.151 218.58 197.15 218.597 197.149C219.011 197.122 219.325 196.765 219.298 196.351L219.105 193.344L221.581 195.401C221.721 195.517 221.891 195.574 222.061 195.574C222.276 195.574 222.49 195.482 222.639 195.303C222.904 194.984 222.86 194.51 222.541 194.245L219.934 192.078L223.337 191.673C223.75 191.624 224.045 191.251 223.995 190.838Z" fill="white"/>
<path d="M240.448 188.451C240.399 188.039 240.025 187.744 239.613 187.794L236.672 188.143L238.753 185.835C239.031 185.527 239.007 185.051 238.698 184.774C238.391 184.496 237.915 184.52 237.637 184.829L235.33 187.388L235.103 183.856C235.076 183.442 234.72 183.128 234.305 183.154C233.891 183.181 233.576 183.538 233.603 183.952L233.835 187.57L230.672 184.942C230.353 184.677 229.879 184.72 229.614 185.039C229.348 185.359 229.392 185.832 229.711 186.098L232.736 188.611L229.233 189.028C228.821 189.077 228.526 189.451 228.575 189.863C228.621 190.245 228.945 190.526 229.321 190.526C229.35 190.526 229.38 190.524 229.41 190.52L232.878 190.108L230.761 192.456C230.483 192.765 230.508 193.24 230.816 193.518C230.959 193.647 231.139 193.711 231.319 193.711C231.524 193.711 231.729 193.627 231.877 193.463L234.058 191.044L234.251 194.06C234.277 194.458 234.607 194.763 235 194.763C235.017 194.763 235.033 194.763 235.049 194.762C235.464 194.735 235.778 194.378 235.751 193.964L235.558 190.957L238.033 193.013C238.174 193.13 238.344 193.187 238.513 193.187C238.729 193.187 238.943 193.095 239.092 192.916C239.357 192.596 239.313 192.123 238.994 191.857L236.387 189.691L239.791 189.286C240.203 189.237 240.497 188.864 240.448 188.451Z" fill="white"/>
<path d="M234.069 136.625C233.35 140.052 232.012 143.198 230.2 146.011C227.96 149.491 224.991 152.461 221.564 154.825C220.863 155.308 220.143 155.765 219.407 156.196C212.009 160.533 202.907 162.227 194.428 160.447C192.42 160.025 190.53 159.4 188.764 158.594C186.538 157.58 184.512 156.283 182.695 154.753C181.668 153.886 180.706 152.945 179.816 151.939L179.816 151.937C173.078 144.325 170.343 132.969 172.677 121.853C176.297 104.611 189.489 92.0599 209.637 97.0171C226.299 101.117 237.689 119.382 234.069 136.625Z" fill="white"/>
<path d="M182.59 148.894C180.348 146.812 178.606 144.382 177.335 141.738C175.762 138.468 174.912 134.869 174.731 131.19C174.695 130.437 174.686 129.682 174.705 128.925C174.891 121.325 177.858 113.601 183.148 107.906C184.4 106.558 185.751 105.39 187.18 104.399C188.979 103.149 190.899 102.177 192.896 101.47C194.026 101.071 195.182 100.755 196.353 100.524L196.354 100.525C205.218 98.7687 215.032 101.75 222.303 108.504C233.581 118.979 236.872 134.686 223.757 147.892C212.911 158.814 193.869 159.37 182.59 148.894Z" fill="#E28569"/>
<path d="M214.69 128.879L191.475 131.409L190.369 121.254C190.043 118.27 190.9 115.338 192.78 112.999C194.659 110.659 197.338 109.192 200.322 108.867L201.197 108.771C204.181 108.446 207.112 109.303 209.452 111.182C211.792 113.062 213.259 115.741 213.584 118.724L214.69 128.879ZM194.459 127.695L210.976 125.895L210.235 119.089C209.765 114.777 205.874 111.651 201.562 112.121L200.686 112.216C197.798 112.72 195.468 114.444 194.363 116.816C193.798 118.03 193.558 119.429 193.717 120.889L194.459 127.695Z" fill="white"/>
<path d="M212.743 145.435L196.941 147.157C193.998 147.478 191.353 145.352 191.032 142.409L189.087 124.552C188.985 123.624 189.656 122.79 190.584 122.689L213.683 120.172C214.611 120.071 215.445 120.742 215.546 121.669L217.491 139.526C217.812 142.469 215.686 145.115 212.743 145.435Z" fill="white"/>
<path d="M204.551 130.733C204.468 129.967 203.779 129.413 203.012 129.497C202.246 129.58 201.692 130.269 201.775 131.036C201.817 131.417 202.008 131.745 202.284 131.969L202.87 137.352C202.93 137.896 203.419 138.29 203.964 138.23C204.508 138.171 204.901 137.682 204.842 137.137L204.256 131.754C204.477 131.476 204.593 131.114 204.551 130.733Z" fill="#E28569"/>
<path d="M127.392 156.202L149.811 165.729C155.396 169.551 163.025 168.124 166.849 162.54C170.673 156.955 169.247 149.328 163.662 145.502L149.186 135.59C139.247 128.989 130.392 126.053 124.24 135.05C115.555 147.751 121.992 152.503 127.392 156.202Z" fill="#FFCDA8"/>
<path d="M327.512 368.907C329.452 368.664 331.355 368.387 333.222 368.066C319.302 329.025 295.467 262.019 295.026 260.775C294.107 258.253 291.322 256.756 287.015 256.31H286.989C277.742 255.364 261.43 259.304 241.309 268.524C216.355 279.977 191.113 275.984 175.931 275.38H175.904C173.093 275.248 170.625 275.275 168.575 275.511C163.866 276.058 160.384 298.965 158.149 323.691C158.009 325.234 157.599 346.46 157.248 363.799C175.366 363.259 187.446 363.298 195.701 363.468C207.966 363.79 211.419 364.25 229.733 365.987C268.394 369.624 300.803 372.408 327.512 368.907Z" fill="#65D922"/>
<path d="M158.928 162.371C158.803 162.371 158.679 162.359 158.557 162.334C158.139 162.258 151.447 161.026 148.34 158.808C147.059 157.893 146.937 155.976 147.994 153.409C148.768 151.532 150.108 149.456 151.58 147.857C152.789 146.545 154.56 145.035 156.136 145.291C159.721 145.875 165.077 149.134 164.982 152.714C164.909 155.457 162.66 160.068 160.607 161.685C160.028 162.142 159.465 162.371 158.928 162.371ZM155.758 146.808C154.306 146.808 150.954 150.285 149.425 153.998C148.701 155.754 148.63 157.114 149.239 157.548C152.094 159.587 158.773 160.801 158.84 160.813L158.865 160.818C159.033 160.853 159.327 160.724 159.649 160.47C161.357 159.125 163.374 154.971 163.435 152.673C163.502 150.175 158.846 147.3 155.887 146.818C155.846 146.812 155.803 146.808 155.758 146.808Z" fill="#EA9F75"/>
<path d="M128.742 126.016L149.565 138.658C154.544 143.241 162.298 142.922 166.884 137.943C171.469 132.964 171.15 125.212 166.171 120.625L153.265 108.74C144.374 100.783 136.032 96.6085 128.654 104.631C118.238 115.957 123.928 121.581 128.742 126.016Z" fill="#FFCDA8"/>
<path d="M159.348 136.661C159.124 136.661 158.91 136.625 158.706 136.551C158.302 136.417 151.857 134.237 149.1 131.597C147.964 130.509 148.117 128.594 149.532 126.205C150.566 124.458 152.191 122.596 153.877 121.225C155.26 120.099 157.23 118.858 158.753 119.338C160.461 119.876 162.467 121.132 163.988 122.614C165.852 124.43 166.724 126.325 166.444 127.952C165.979 130.655 163.092 134.897 160.828 136.203C160.299 136.509 159.804 136.661 159.348 136.661ZM158.011 120.775C156.472 120.775 152.841 123.653 150.863 126.993C149.896 128.626 149.631 129.962 150.171 130.48C152.704 132.907 159.14 135.065 159.205 135.086L159.229 135.095C159.391 135.155 159.7 135.068 160.055 134.863C161.938 133.777 164.529 129.955 164.919 127.689C165.343 125.227 161.148 121.715 158.288 120.814C158.205 120.787 158.112 120.775 158.011 120.775Z" fill="#EA9F75"/>
<path d="M137.856 186.316L157.772 191.113C162.935 193.51 169.064 191.269 171.463 186.107C173.862 180.945 171.621 174.816 166.459 172.416L153.078 166.199C143.919 162.102 136.168 160.893 132.311 169.208C126.867 180.947 132.864 183.996 137.856 186.316Z" fill="#FFCDA8"/>
<path d="M164.613 187.209C164.593 187.209 164.573 187.209 164.553 187.208C164.179 187.203 158.443 187.106 155.539 185.686C154.818 185.334 153.716 184.271 154.438 181.118C155.18 177.88 157.788 173.171 160.186 173.161C160.196 173.161 160.206 173.161 160.215 173.161C163.314 173.161 168.25 175.161 168.675 178.199C168.998 180.511 167.756 184.699 166.258 186.346C165.736 186.919 165.184 187.209 164.613 187.209ZM160.214 174.708C160.207 174.708 160.2 174.708 160.193 174.708C159.077 174.713 156.693 178.207 155.946 181.464C155.609 182.938 155.715 184.05 156.218 184.296C158.844 185.58 164.525 185.661 164.582 185.661L164.608 185.662C164.666 185.663 164.852 185.593 165.113 185.305C166.301 183.999 167.402 180.263 167.143 178.413C166.861 176.396 162.697 174.708 160.214 174.708Z" fill="#EA9F75"/>
<path d="M157.606 142.759C149.082 142.759 134.124 130.332 133.452 129.77C133.125 129.496 133.081 129.008 133.355 128.681C133.629 128.353 134.117 128.31 134.445 128.584C134.488 128.62 138.782 132.199 143.963 135.517C150.69 139.825 155.827 141.752 158.82 141.09C159.236 140.998 159.65 141.261 159.742 141.678C159.834 142.095 159.571 142.508 159.154 142.601C158.668 142.708 158.15 142.759 157.606 142.759Z" fill="#EA9F75"/>
<path d="M156.333 168.771C151.149 168.771 142.849 163.676 142.461 163.436C142.098 163.212 141.986 162.735 142.21 162.371C142.435 162.008 142.912 161.896 143.275 162.121C146.044 163.833 153.994 168.063 157.481 167.089C157.893 166.973 158.319 167.214 158.434 167.626C158.549 168.037 158.309 168.464 157.897 168.579C157.422 168.711 156.896 168.771 156.333 168.771Z" fill="#EA9F75"/>
<path d="M259.411 91.9105C258.377 91.9107 257.091 91.684 255.722 90.9054C254.78 90.3697 253.505 88.8175 253.307 81.551C253.202 77.7218 253.459 74.0473 253.462 74.0106C253.492 73.5844 253.862 73.2634 254.289 73.2941C254.715 73.3241 255.036 73.6943 255.005 74.1203C255.003 74.1566 254.75 77.7651 254.854 81.5195C255.038 88.2238 256.151 89.3693 256.487 89.5606C258.989 90.9833 261.082 90.097 261.17 90.0583C261.56 89.8879 262.016 90.0633 262.189 90.4521C262.362 90.8408 262.191 91.2951 261.803 91.4703C261.737 91.5006 260.802 91.9105 259.411 91.9105Z" fill="#EA9F75"/>
<path d="M180.677 259.379C180.618 259.386 180.559 259.388 180.498 259.384C171.696 258.842 166.358 255.688 163.431 253.138C160.205 250.328 159.105 247.628 159.06 247.514C158.856 247.004 159.105 246.426 159.616 246.222C160.124 246.019 160.702 246.267 160.906 246.775C160.916 246.799 161.922 249.217 164.829 251.718C167.52 254.031 172.444 256.895 180.62 257.398C181.169 257.432 181.586 257.904 181.552 258.452C181.522 258.94 181.145 259.324 180.677 259.379Z" fill="#EA9F75"/>
<path d="M161.021 193.054C160.996 193.054 160.973 193.054 160.948 193.054C155.726 193.031 136.766 186.533 135.961 186.257C135.557 186.118 135.342 185.678 135.481 185.274C135.62 184.87 136.06 184.655 136.464 184.793C136.658 184.861 155.985 191.485 160.955 191.507C160.977 191.507 160.998 191.507 161.02 191.507C165.75 191.507 168.018 189.263 168.04 189.241C168.34 188.936 168.83 188.933 169.134 189.233C169.438 189.533 169.442 190.023 169.142 190.327C169.032 190.439 166.389 193.054 161.021 193.054Z" fill="#EA9F75"/>
<path d="M179.248 303.395C178.965 300.978 180.903 298.14 183.267 297.57C186.354 296.825 188.977 298.656 189.261 301.072C189.593 303.901 187.418 306.871 184.495 307.214C182.079 307.498 179.532 305.811 179.248 303.395Z" fill="#214C07"/>
</svg>
