<svg width="442" height="77" viewBox="0 0 442 77" fill="none" xmlns="http://www.w3.org/2000/svg">
<path d="M48.1934 2.51807C55.4422 2.51807 59.0668 2.51839 61.9258 3.70264C65.7378 5.28167 68.7667 8.31055 70.3457 12.1226C71.5298 14.9815 71.5293 18.6064 71.5293 25.855V50.7114C71.5293 57.9603 71.53 61.5848 70.3457 64.4438C68.7667 68.2559 65.7379 71.2848 61.9258 72.8638C59.0668 74.048 55.4422 74.0474 48.1934 74.0474H23.3369C16.0883 74.0474 12.4635 74.0478 9.60449 72.8638C5.79248 71.2848 2.76361 68.2558 1.18457 64.4438C0.000321545 61.5848 1.14766e-10 57.9603 0 50.7114V25.855C0 18.6062 0.000426392 14.9816 1.18457 12.1226C2.76358 8.31048 5.79242 5.28165 9.60449 3.70264C12.4635 2.51849 16.0882 2.51807 23.3369 2.51807H48.1934ZM42.5332 22.3325C42.9212 20.9256 41.3449 19.8329 40.1748 20.6196L40.0635 20.7007L19.9482 36.728C18.9544 37.5204 19.2788 39.1054 20.5039 39.4438L30.2559 42.1353L27.1133 53.5249C26.7129 54.9772 28.4047 56.0946 29.583 55.1558L49.6973 39.1284C50.6915 38.336 50.3663 36.7498 49.1406 36.4116L39.3906 33.7212L42.5332 22.3325Z" fill="white"/>
<path d="M101.585 57.7827L90.4216 18.7665H99.4326L105.891 45.8759H106.215L113.34 18.7665H121.055L128.161 45.9331H128.504L134.963 18.7665H143.974L132.81 57.7827H124.77L117.34 32.2736H117.036L109.625 57.7827H101.585ZM157.78 58.3542C154.77 58.3542 152.179 57.7446 150.007 56.5254C147.848 55.2934 146.185 53.5534 145.016 51.3054C143.848 49.0447 143.263 46.3712 143.263 43.285C143.263 40.275 143.848 37.6332 145.016 35.3598C146.185 33.0864 147.829 31.3147 149.95 30.0446C152.084 28.7746 154.586 28.1395 157.456 28.1395C159.387 28.1395 161.184 28.4507 162.848 29.073C164.524 29.6827 165.985 30.6035 167.229 31.8354C168.487 33.0674 169.465 34.6168 170.163 36.4838C170.862 38.3381 171.211 40.5099 171.211 42.9992V45.2282H146.502V40.1987H163.572C163.572 39.0303 163.318 37.9952 162.81 37.0935C162.302 36.1917 161.597 35.4868 160.695 34.9788C159.806 34.4581 158.771 34.1977 157.59 34.1977C156.358 34.1977 155.266 34.4835 154.313 35.055C153.373 35.6138 152.636 36.3695 152.103 37.3221C151.57 38.2619 151.297 39.3097 151.284 40.4655V45.2472C151.284 46.6951 151.551 47.9461 152.084 49.0003C152.63 50.0544 153.399 50.8672 154.389 51.4388C155.38 52.0103 156.555 52.2961 157.914 52.2961C158.815 52.2961 159.641 52.1691 160.39 51.915C161.14 51.661 161.781 51.28 162.314 50.772C162.848 50.264 163.254 49.6416 163.534 48.905L171.04 49.4003C170.659 51.2038 169.878 52.7787 168.696 54.1249C167.528 55.4585 166.017 56.5 164.162 57.2493C162.321 57.9859 160.193 58.3542 157.78 58.3542ZM184.203 58.3352C182.336 58.3352 180.673 58.0113 179.212 57.3636C177.751 56.7032 176.596 55.7316 175.745 54.4488C174.906 53.1534 174.487 51.5404 174.487 49.6099C174.487 47.9842 174.786 46.6189 175.383 45.5139C175.98 44.409 176.792 43.52 177.821 42.8468C178.85 42.1737 180.018 41.6657 181.327 41.3228C182.647 40.9798 184.032 40.7385 185.48 40.5988C187.182 40.421 188.553 40.2559 189.595 40.1035C190.636 39.9384 191.392 39.6971 191.862 39.3796C192.332 39.062 192.567 38.5921 192.567 37.9698V37.8555C192.567 36.6489 192.186 35.7154 191.424 35.055C190.674 34.3946 189.607 34.0644 188.223 34.0644C186.762 34.0644 185.6 34.3882 184.737 35.036C183.873 35.671 183.302 36.4711 183.022 37.4364L175.516 36.8267C175.897 35.0487 176.646 33.5119 177.764 32.2164C178.882 30.9083 180.323 29.9049 182.089 29.2064C183.867 28.4952 185.924 28.1395 188.261 28.1395C189.887 28.1395 191.443 28.33 192.929 28.7111C194.427 29.0921 195.754 29.6827 196.91 30.4828C198.079 31.2829 198.999 32.3117 199.673 33.569C200.346 34.8137 200.682 36.306 200.682 38.046V57.7827H192.986V53.7249H192.757C192.287 54.6393 191.659 55.4458 190.871 56.1443C190.084 56.8302 189.137 57.3699 188.033 57.7637C186.928 58.1447 185.651 58.3352 184.203 58.3352ZM186.527 52.7342C187.721 52.7342 188.775 52.4993 189.69 52.0293C190.604 51.5467 191.322 50.899 191.843 50.0862C192.363 49.2733 192.624 48.3525 192.624 47.3238V44.2185C192.37 44.3836 192.02 44.536 191.576 44.6757C191.144 44.8027 190.655 44.9234 190.109 45.0377C189.563 45.1393 189.017 45.2345 188.471 45.3234C187.925 45.3996 187.429 45.4695 186.985 45.533C186.032 45.6727 185.2 45.895 184.489 46.1998C183.778 46.5046 183.225 46.9174 182.832 47.4381C182.438 47.9461 182.241 48.5811 182.241 49.3432C182.241 50.4481 182.641 51.2927 183.441 51.8769C184.254 52.4485 185.283 52.7342 186.527 52.7342ZM221.895 28.5206V34.6168H204.273V28.5206H221.895ZM208.274 21.5098H216.389V48.7907C216.389 49.54 216.504 50.1243 216.732 50.5434C216.961 50.9498 217.278 51.2356 217.685 51.4007C218.104 51.5658 218.586 51.6483 219.133 51.6483C219.514 51.6483 219.895 51.6166 220.276 51.5531C220.657 51.4769 220.949 51.4197 221.152 51.3816L222.428 57.4207C222.022 57.5478 221.45 57.6938 220.714 57.8589C219.977 58.0367 219.082 58.1447 218.028 58.1828C216.072 58.259 214.357 57.9986 212.884 57.4017C211.423 56.8048 210.287 55.8776 209.474 54.6203C208.661 53.3629 208.261 51.7753 208.274 49.8575V21.5098ZM235.278 40.8655V57.7827H227.162V18.7665H235.049V33.6833H235.392C236.052 31.9561 237.119 30.6035 238.593 29.6255C240.066 28.6349 241.914 28.1395 244.136 28.1395C246.168 28.1395 247.94 28.5841 249.452 29.4731C250.976 30.3494 252.157 31.6131 252.995 33.2642C253.846 34.9026 254.265 36.8648 254.252 39.1509V57.7827H246.137V40.5988C246.149 38.7953 245.692 37.3919 244.765 36.3886C243.851 35.3852 242.568 34.8836 240.917 34.8836C239.812 34.8836 238.834 35.1185 237.983 35.5884C237.145 36.0584 236.484 36.7442 236.002 37.6459C235.532 38.535 235.29 39.6082 235.278 40.8655ZM273.327 58.3542C270.317 58.3542 267.726 57.7446 265.554 56.5254C263.395 55.2934 261.731 53.5534 260.562 51.3054C259.394 49.0447 258.81 46.3712 258.81 43.285C258.81 40.275 259.394 37.6332 260.562 35.3598C261.731 33.0864 263.376 31.3147 265.497 30.0446C267.63 28.7746 270.132 28.1395 273.003 28.1395C274.933 28.1395 276.73 28.4507 278.394 29.073C280.071 29.6827 281.531 30.6035 282.776 31.8354C284.033 33.0674 285.011 34.6168 285.71 36.4838C286.408 38.3381 286.757 40.5099 286.757 42.9992V45.2282H262.048V40.1987H279.118C279.118 39.0303 278.864 37.9952 278.356 37.0935C277.848 36.1917 277.143 35.4868 276.241 34.9788C275.352 34.4581 274.317 34.1977 273.136 34.1977C271.904 34.1977 270.812 34.4835 269.859 35.055C268.919 35.6138 268.183 36.3695 267.649 37.3221C267.116 38.2619 266.843 39.3097 266.83 40.4655V45.2472C266.83 46.6951 267.097 47.9461 267.63 49.0003C268.176 50.0544 268.945 50.8672 269.936 51.4388C270.926 52.0103 272.101 52.2961 273.46 52.2961C274.362 52.2961 275.187 52.1691 275.937 51.915C276.686 51.661 277.327 51.28 277.861 50.772C278.394 50.264 278.801 49.6416 279.08 48.905L286.586 49.4003C286.205 51.2038 285.424 52.7787 284.243 54.1249C283.074 55.4585 281.563 56.5 279.709 57.2493C277.867 57.9859 275.74 58.3542 273.327 58.3542ZM291.405 57.7827V28.5206H299.273V33.6262H299.578C300.112 31.81 301.007 30.4383 302.264 29.5112C303.522 28.5714 304.97 28.1014 306.608 28.1014C307.014 28.1014 307.453 28.1268 307.922 28.1776C308.392 28.2284 308.805 28.2983 309.161 28.3872V35.5884C308.78 35.4741 308.253 35.3725 307.58 35.2836C306.906 35.1947 306.29 35.1503 305.732 35.1503C304.538 35.1503 303.471 35.4106 302.531 35.9314C301.604 36.4394 300.867 37.1506 300.321 38.065C299.788 38.9795 299.521 40.0336 299.521 41.2275V57.7827H291.405ZM324.629 57.7827V18.7665H340.022C342.969 18.7665 345.483 19.2936 347.566 20.3477C349.662 21.3892 351.256 22.8688 352.348 24.7866C353.453 26.6917 354.006 28.9333 354.006 31.5115C354.006 34.1025 353.447 36.3314 352.329 38.1984C351.211 40.0527 349.592 41.4752 347.471 42.4658C345.363 43.4564 342.81 43.9518 339.813 43.9518H329.506V37.3221H338.479C340.054 37.3221 341.362 37.1062 342.404 36.6743C343.445 36.2425 344.22 35.5948 344.728 34.7311C345.248 33.8675 345.509 32.7943 345.509 31.5115C345.509 30.2161 345.248 29.1238 344.728 28.2348C344.22 27.3458 343.439 26.6726 342.384 26.2154C341.343 25.7455 340.029 25.5105 338.441 25.5105H332.878V57.7827H324.629ZM345.699 40.0273L355.396 57.7827H346.29L336.803 40.0273H345.699ZM365.836 18.7665V22.8815C365.836 24.0499 365.607 25.2438 365.15 26.4631C364.705 27.6696 364.108 28.8127 363.359 29.8922C362.61 30.9591 361.79 31.8672 360.901 32.6165L357.32 30.5018C357.955 29.4985 358.514 28.3872 358.996 27.1679C359.492 25.9487 359.739 24.5326 359.739 22.9196V18.7665H365.836ZM394.845 18.7665H403.094V44.1042C403.094 46.9491 402.414 49.4384 401.055 51.5721C399.709 53.7058 397.823 55.3696 395.397 56.5635C392.972 57.7446 390.146 58.3352 386.92 58.3352C383.681 58.3352 380.849 57.7446 378.423 56.5635C375.997 55.3696 374.111 53.7058 372.765 51.5721C371.419 49.4384 370.745 46.9491 370.745 44.1042V18.7665H378.995V43.3993C378.995 44.8853 379.318 46.2061 379.966 47.3619C380.627 48.5176 381.554 49.4257 382.748 50.0862C383.941 50.7466 385.332 51.0768 386.92 51.0768C388.52 51.0768 389.911 50.7466 391.092 50.0862C392.286 49.4257 393.206 48.5176 393.854 47.3619C394.515 46.2061 394.845 44.8853 394.845 43.3993V18.7665ZM430.398 29.9875C430.246 28.4507 429.592 27.2568 428.436 26.4059C427.28 25.555 425.712 25.1295 423.73 25.1295C422.384 25.1295 421.247 25.32 420.32 25.701C419.393 26.0693 418.682 26.5837 418.186 27.2441C417.704 27.9046 417.463 28.6539 417.463 29.4922C417.437 30.1907 417.583 30.8003 417.901 31.321C418.231 31.8418 418.682 32.2926 419.253 32.6736C419.825 33.042 420.485 33.3658 421.235 33.6452C421.984 33.912 422.784 34.1406 423.635 34.3311L427.14 35.1693C428.842 35.5503 430.404 36.0584 431.827 36.6934C433.249 37.3284 434.481 38.1095 435.523 39.0366C436.564 39.9638 437.371 41.056 437.942 42.3134C438.526 43.5708 438.825 45.0123 438.838 46.6379C438.825 49.0257 438.215 51.0959 437.009 52.8485C435.815 54.5885 434.088 55.9411 431.827 56.9064C429.579 57.8589 426.867 58.3352 423.692 58.3352C420.542 58.3352 417.799 57.8526 415.462 56.8873C413.138 55.9221 411.322 54.4933 410.014 52.6009C408.718 50.6958 408.039 48.3398 407.975 45.533H415.957C416.046 46.8412 416.421 47.9334 417.081 48.8097C417.755 49.6734 418.65 50.3275 419.768 50.772C420.898 51.2038 422.174 51.4197 423.597 51.4197C424.994 51.4197 426.207 51.2165 427.236 50.8101C428.277 50.4037 429.084 49.8385 429.655 49.1146C430.227 48.3906 430.512 47.5587 430.512 46.6189C430.512 45.7426 430.252 45.0059 429.731 44.409C429.223 43.8121 428.474 43.304 427.483 42.8849C426.505 42.4658 425.305 42.0848 423.883 41.7419L419.634 40.675C416.345 39.8749 413.748 38.6239 411.842 36.922C409.937 35.2201 408.991 32.9277 409.004 30.0446C408.991 27.6823 409.62 25.6185 410.89 23.8531C412.173 22.0877 413.932 20.7097 416.167 19.719C418.402 18.7284 420.942 18.2331 423.787 18.2331C426.683 18.2331 429.211 18.7284 431.37 19.719C433.541 20.7097 435.231 22.0877 436.437 23.8531C437.644 25.6185 438.266 27.6633 438.304 29.9875H430.398Z" fill="white"/>
</svg>
